<?xml version="1.0" encoding="us-ascii" standalone="no"?><svg xmlns="http://www.w3.org/2000/svg" xmlns:xlink="http://www.w3.org/1999/xlink" contentStyleType="text/css" height="1428px" preserveAspectRatio="none" style="width:3893px;height:1428px;background:#FFFFFF;" version="1.1" viewBox="0 0 3893 1428" width="3893px" zoomAndPan="magnify"><defs/><g><!--class CommandQueue--><g id="elem_CommandQueue"><rect codeLine="8" fill="#F1F1F1" height="308.6953" id="CommandQueue" rx="2.5" ry="2.5" style="stroke:#181818;stroke-width:0.5;" width="527" x="1342.65" y="744"/><ellipse cx="1548.4" cy="760" fill="#ADD1B2" rx="11" ry="11" style="stroke:#181818;stroke-width:1.0;"/><path d="M1551.1656,755.875 Q1551.3219,755.6563 1551.5094,755.5469 Q1551.6969,755.4375 1551.9156,755.4375 Q1552.2906,755.4375 1552.525,755.7031 Q1552.7594,755.9531 1552.7594,756.5625 L1552.7594,758.0156 Q1552.7594,758.625 1552.525,758.8906 Q1552.2906,759.1563 1551.9156,759.1563 Q1551.5719,759.1563 1551.3688,758.9531 Q1551.1656,758.7656 1551.0563,758.25 Q1551.0094,757.8906 1550.8219,757.7031 Q1550.4938,757.3281 1549.8844,757.1094 Q1549.275,756.8906 1548.65,756.8906 Q1547.8844,756.8906 1547.2438,757.2188 Q1546.6188,757.5469 1546.1188,758.2969 Q1545.6344,759.0469 1545.6344,760.0781 L1545.6344,761.1719 Q1545.6344,762.4063 1546.525,763.2344 Q1547.4156,764.0469 1549.0094,764.0469 Q1549.9469,764.0469 1550.6031,763.7969 Q1550.9938,763.6406 1551.4156,763.2031 Q1551.6813,762.9375 1551.8219,762.8594 Q1551.9781,762.7813 1552.1813,762.7813 Q1552.5094,762.7813 1552.7594,763.0469 Q1553.025,763.2969 1553.025,763.6406 Q1553.025,763.9844 1552.6813,764.3906 Q1552.1813,764.9688 1551.3844,765.2969 Q1550.3063,765.75 1549.0094,765.75 Q1547.4938,765.75 1546.2906,765.125 Q1545.3063,764.625 1544.6188,763.5625 Q1543.9313,762.4844 1543.9313,761.2031 L1543.9313,760.0469 Q1543.9313,758.7188 1544.5406,757.5781 Q1545.1656,756.4219 1546.2594,755.8125 Q1547.3531,755.1875 1548.5875,755.1875 Q1549.3219,755.1875 1549.9625,755.3594 Q1550.6188,755.5156 1551.1656,755.875 Z " fill="#000000"/><text fill="#000000" font-family="sans-serif" font-size="14" lengthAdjust="spacing" textLength="107" x="1568.9" y="765.7969">CommandQueue</text><line style="stroke:#181818;stroke-width:0.5;" x1="1343.65" x2="1868.65" y1="776" y2="776"/><rect fill="none" height="6" style="stroke:#C82930;stroke-width:1.0;" width="6" x="1350.65" y="787.8105"/><text fill="#000000" font-family="sans-serif" font-size="14" lengthAdjust="spacing" textLength="305" x="1362.65" y="795.1074">_cmdAlloc : ComPtr&lt;ID3D12CommandAllocator&gt;</text><rect fill="none" height="6" style="stroke:#C82930;stroke-width:1.0;" width="6" x="1350.65" y="806.4316"/><text fill="#000000" font-family="sans-serif" font-size="14" lengthAdjust="spacing" textLength="306" x="1362.65" y="813.7285">_cmdQueue : ComPtr&lt;ID3D12CommandQueue&gt;</text><rect fill="none" height="6" style="stroke:#C82930;stroke-width:1.0;" width="6" x="1350.65" y="825.0527"/><text fill="#000000" font-family="sans-serif" font-size="14" lengthAdjust="spacing" textLength="205" x="1362.65" y="832.3496">_fence : ComPtr&lt;ID3D12Fence&gt;</text><rect fill="none" height="6" style="stroke:#C82930;stroke-width:1.0;" width="6" x="1350.65" y="843.6738"/><text fill="#000000" font-family="sans-serif" font-size="14" lengthAdjust="spacing" textLength="321" x="1362.65" y="850.9707">_cmdList : ComPtr&lt;ID3D12GraphicsCommandList&gt;</text><rect fill="none" height="6" style="stroke:#C82930;stroke-width:1.0;" width="6" x="1350.65" y="862.2949"/><text fill="#000000" font-family="sans-serif" font-size="14" lengthAdjust="spacing" textLength="145" x="1362.65" y="869.5918">_fenceEvent : HANDLE</text><rect fill="none" height="6" style="stroke:#C82930;stroke-width:1.0;" width="6" x="1350.65" y="880.916"/><text fill="#000000" font-family="sans-serif" font-size="14" lengthAdjust="spacing" textLength="245" x="1362.65" y="888.2129">_swapChain : shared_ptr&lt;SwapChain&gt;</text><rect fill="none" height="6" style="stroke:#C82930;stroke-width:1.0;" width="6" x="1350.65" y="899.5371"/><text fill="#000000" font-family="sans-serif" font-size="14" lengthAdjust="spacing" textLength="168" x="1362.65" y="906.834">_fenceValue : unsigned int</text><line style="stroke:#181818;stroke-width:0.5;" x1="1343.65" x2="1868.65" y1="914.3477" y2="914.3477"/><ellipse cx="1353.65" cy="929.1582" fill="#84BE84" rx="3" ry="3" style="stroke:#038048;stroke-width:1.0;"/><text fill="#000000" font-family="sans-serif" font-size="14" lengthAdjust="spacing" textLength="125" x="1362.65" y="933.4551">~CommandQueue()</text><ellipse cx="1353.65" cy="947.7793" fill="#84BE84" rx="3" ry="3" style="stroke:#038048;stroke-width:1.0;"/><text fill="#000000" font-family="sans-serif" font-size="14" lengthAdjust="spacing" textLength="334" x="1362.65" y="952.0762">GetCmdQueue() : ComPtr&lt;ID3D12CommandQueue&gt;</text><ellipse cx="1353.65" cy="966.4004" fill="#84BE84" rx="3" ry="3" style="stroke:#038048;stroke-width:1.0;"/><text fill="#000000" font-family="sans-serif" font-size="14" lengthAdjust="spacing" textLength="349" x="1362.65" y="970.6973">GetCmdList() : ComPtr&lt;ID3D12GraphicsCommandList&gt;</text><ellipse cx="1353.65" cy="985.0215" fill="#84BE84" rx="3" ry="3" style="stroke:#038048;stroke-width:1.0;"/><text fill="#000000" font-family="sans-serif" font-size="14" lengthAdjust="spacing" textLength="501" x="1362.65" y="989.3184">Init(ComPtr&lt;ID3D12Device&gt; device, shared_ptr&lt;SwapChain&gt; swapChain) : void</text><ellipse cx="1353.65" cy="1003.6426" fill="#84BE84" rx="3" ry="3" style="stroke:#038048;stroke-width:1.0;"/><text fill="#000000" font-family="sans-serif" font-size="14" lengthAdjust="spacing" textLength="487" x="1362.65" y="1007.9395">RenderBegin(const D3D12_VIEWPORT* vp, const D3D12_RECT* rect) : void</text><ellipse cx="1353.65" cy="1022.2637" fill="#84BE84" rx="3" ry="3" style="stroke:#038048;stroke-width:1.0;"/><text fill="#000000" font-family="sans-serif" font-size="14" lengthAdjust="spacing" textLength="120" x="1362.65" y="1026.5605">RenderEnd() : void</text><ellipse cx="1353.65" cy="1040.8848" fill="#84BE84" rx="3" ry="3" style="stroke:#038048;stroke-width:1.0;"/><text fill="#000000" font-family="sans-serif" font-size="14" lengthAdjust="spacing" textLength="107" x="1362.65" y="1045.1816">WaitSync() : void</text></g><!--class ConstantBuffer--><g id="elem_ConstantBuffer"><rect codeLine="26" fill="#F1F1F1" height="271.4531" id="ConstantBuffer" rx="2.5" ry="2.5" style="stroke:#181818;stroke-width:0.5;" width="524" x="93.15" y="413"/><ellipse cx="303.4" cy="429" fill="#ADD1B2" rx="11" ry="11" style="stroke:#181818;stroke-width:1.0;"/><path d="M306.1656,424.875 Q306.3219,424.6563 306.5094,424.5469 Q306.6969,424.4375 306.9156,424.4375 Q307.2906,424.4375 307.525,424.7031 Q307.7594,424.9531 307.7594,425.5625 L307.7594,427.0156 Q307.7594,427.625 307.525,427.8906 Q307.2906,428.1563 306.9156,428.1563 Q306.5719,428.1563 306.3688,427.9531 Q306.1656,427.7656 306.0563,427.25 Q306.0094,426.8906 305.8219,426.7031 Q305.4938,426.3281 304.8844,426.1094 Q304.275,425.8906 303.65,425.8906 Q302.8844,425.8906 302.2438,426.2188 Q301.6188,426.5469 301.1188,427.2969 Q300.6344,428.0469 300.6344,429.0781 L300.6344,430.1719 Q300.6344,431.4063 301.525,432.2344 Q302.4156,433.0469 304.0094,433.0469 Q304.9469,433.0469 305.6031,432.7969 Q305.9938,432.6406 306.4156,432.2031 Q306.6813,431.9375 306.8219,431.8594 Q306.9781,431.7813 307.1813,431.7813 Q307.5094,431.7813 307.7594,432.0469 Q308.025,432.2969 308.025,432.6406 Q308.025,432.9844 307.6813,433.3906 Q307.1813,433.9688 306.3844,434.2969 Q305.3063,434.75 304.0094,434.75 Q302.4938,434.75 301.2906,434.125 Q300.3063,433.625 299.6188,432.5625 Q298.9313,431.4844 298.9313,430.2031 L298.9313,429.0469 Q298.9313,427.7188 299.5406,426.5781 Q300.1656,425.4219 301.2594,424.8125 Q302.3531,424.1875 303.5875,424.1875 Q304.3219,424.1875 304.9625,424.3594 Q305.6188,424.5156 306.1656,424.875 Z " fill="#000000"/><text fill="#000000" font-family="sans-serif" font-size="14" lengthAdjust="spacing" textLength="95" x="323.9" y="434.7969">ConstantBuffer</text><line style="stroke:#181818;stroke-width:0.5;" x1="94.15" x2="616.15" y1="445" y2="445"/><rect fill="none" height="6" style="stroke:#C82930;stroke-width:1.0;" width="6" x="101.15" y="456.8105"/><text fill="#000000" font-family="sans-serif" font-size="14" lengthAdjust="spacing" textLength="150" x="113.15" y="464.1074">_mappedBuffer : BYTE*</text><rect fill="none" height="6" style="stroke:#C82930;stroke-width:1.0;" width="6" x="101.15" y="475.4316"/><text fill="#000000" font-family="sans-serif" font-size="14" lengthAdjust="spacing" textLength="251" x="113.15" y="482.7285">_cbvBuffer : ComPtr&lt;ID3D12Resource&gt;</text><rect fill="none" height="6" style="stroke:#C82930;stroke-width:1.0;" width="6" x="101.15" y="494.0527"/><text fill="#000000" font-family="sans-serif" font-size="14" lengthAdjust="spacing" textLength="175" x="113.15" y="501.3496">_currentIndex : unsigned int</text><rect fill="none" height="6" style="stroke:#C82930;stroke-width:1.0;" width="6" x="101.15" y="512.6738"/><text fill="#000000" font-family="sans-serif" font-size="14" lengthAdjust="spacing" textLength="185" x="113.15" y="519.9707">_elementCount : unsigned int</text><rect fill="none" height="6" style="stroke:#C82930;stroke-width:1.0;" width="6" x="101.15" y="531.2949"/><text fill="#000000" font-family="sans-serif" font-size="14" lengthAdjust="spacing" textLength="173" x="113.15" y="538.5918">_elementSize : unsigned int</text><line style="stroke:#181818;stroke-width:0.5;" x1="94.15" x2="616.15" y1="546.1055" y2="546.1055"/><ellipse cx="104.15" cy="560.916" fill="#84BE84" rx="3" ry="3" style="stroke:#038048;stroke-width:1.0;"/><text fill="#000000" font-family="sans-serif" font-size="14" lengthAdjust="spacing" textLength="105" x="113.15" y="565.2129">ConstantBuffer()</text><ellipse cx="104.15" cy="579.5371" fill="#84BE84" rx="3" ry="3" style="stroke:#038048;stroke-width:1.0;"/><text fill="#000000" font-family="sans-serif" font-size="14" lengthAdjust="spacing" textLength="113" x="113.15" y="583.834">~ConstantBuffer()</text><ellipse cx="104.15" cy="598.1582" fill="#84BE84" rx="3" ry="3" style="stroke:#038048;stroke-width:1.0;"/><text fill="#000000" font-family="sans-serif" font-size="14" lengthAdjust="spacing" textLength="498" x="113.15" y="602.4551">GetGpuVirtualAddress(unsigned int index) : D3D12_GPU_VIRTUAL_ADDRESS</text><ellipse cx="104.15" cy="616.7793" fill="#84BE84" rx="3" ry="3" style="stroke:#038048;stroke-width:1.0;"/><text fill="#000000" font-family="sans-serif" font-size="14" lengthAdjust="spacing" textLength="82" x="113.15" y="621.0762">Clear() : void</text><rect fill="#F24D5C" height="6" style="stroke:#C82930;stroke-width:1.0;" width="6" x="101.15" y="632.4004"/><text fill="#000000" font-family="sans-serif" font-size="14" lengthAdjust="spacing" textLength="129" x="113.15" y="639.6973">CreateBuffer() : void</text><ellipse cx="104.15" cy="654.0215" fill="#84BE84" rx="3" ry="3" style="stroke:#038048;stroke-width:1.0;"/><text fill="#000000" font-family="sans-serif" font-size="14" lengthAdjust="spacing" textLength="295" x="113.15" y="658.3184">Init(unsigned int size, unsigned int count) : void</text><ellipse cx="104.15" cy="672.6426" fill="#84BE84" rx="3" ry="3" style="stroke:#038048;stroke-width:1.0;"/><text fill="#000000" font-family="sans-serif" font-size="14" lengthAdjust="spacing" textLength="421" x="113.15" y="676.9395">PushData(int rootParamIndex, void* buffer, unsigned int size) : void</text></g><!--class Device--><g id="elem_Device"><rect codeLine="42" fill="#F1F1F1" height="159.7266" id="Device" rx="2.5" ry="2.5" style="stroke:#181818;stroke-width:0.5;" width="300" x="939.15" y="468.5"/><ellipse cx="1063.4" cy="484.5" fill="#ADD1B2" rx="11" ry="11" style="stroke:#181818;stroke-width:1.0;"/><path d="M1066.1656,480.375 Q1066.3219,480.1563 1066.5094,480.0469 Q1066.6969,479.9375 1066.9156,479.9375 Q1067.2906,479.9375 1067.525,480.2031 Q1067.7594,480.4531 1067.7594,481.0625 L1067.7594,482.5156 Q1067.7594,483.125 1067.525,483.3906 Q1067.2906,483.6563 1066.9156,483.6563 Q1066.5719,483.6563 1066.3688,483.4531 Q1066.1656,483.2656 1066.0563,482.75 Q1066.0094,482.3906 1065.8219,482.2031 Q1065.4938,481.8281 1064.8844,481.6094 Q1064.275,481.3906 1063.65,481.3906 Q1062.8844,481.3906 1062.2438,481.7188 Q1061.6188,482.0469 1061.1188,482.7969 Q1060.6344,483.5469 1060.6344,484.5781 L1060.6344,485.6719 Q1060.6344,486.9063 1061.525,487.7344 Q1062.4156,488.5469 1064.0094,488.5469 Q1064.9469,488.5469 1065.6031,488.2969 Q1065.9938,488.1406 1066.4156,487.7031 Q1066.6813,487.4375 1066.8219,487.3594 Q1066.9781,487.2813 1067.1813,487.2813 Q1067.5094,487.2813 1067.7594,487.5469 Q1068.025,487.7969 1068.025,488.1406 Q1068.025,488.4844 1067.6813,488.8906 Q1067.1813,489.4688 1066.3844,489.7969 Q1065.3063,490.25 1064.0094,490.25 Q1062.4938,490.25 1061.2906,489.625 Q1060.3063,489.125 1059.6188,488.0625 Q1058.9313,486.9844 1058.9313,485.7031 L1058.9313,484.5469 Q1058.9313,483.2188 1059.5406,482.0781 Q1060.1656,480.9219 1061.2594,480.3125 Q1062.3531,479.6875 1063.5875,479.6875 Q1064.3219,479.6875 1064.9625,479.8594 Q1065.6188,480.0156 1066.1656,480.375 Z " fill="#000000"/><text fill="#000000" font-family="sans-serif" font-size="14" lengthAdjust="spacing" textLength="43" x="1083.9" y="490.2969">Device</text><line style="stroke:#181818;stroke-width:0.5;" x1="940.15" x2="1238.15" y1="500.5" y2="500.5"/><rect fill="none" height="6" style="stroke:#C82930;stroke-width:1.0;" width="6" x="947.15" y="512.3105"/><text fill="#000000" font-family="sans-serif" font-size="14" lengthAdjust="spacing" textLength="274" x="959.15" y="519.6074">_debugController : ComPtr&lt;ID3D12Debug&gt;</text><rect fill="none" height="6" style="stroke:#C82930;stroke-width:1.0;" width="6" x="947.15" y="530.9316"/><text fill="#000000" font-family="sans-serif" font-size="14" lengthAdjust="spacing" textLength="214" x="959.15" y="538.2285">_device : ComPtr&lt;ID3D12Device&gt;</text><rect fill="none" height="6" style="stroke:#C82930;stroke-width:1.0;" width="6" x="947.15" y="549.5527"/><text fill="#000000" font-family="sans-serif" font-size="14" lengthAdjust="spacing" textLength="191" x="959.15" y="556.8496">_dxgi : ComPtr&lt;IDXGIFactory&gt;</text><line style="stroke:#181818;stroke-width:0.5;" x1="940.15" x2="1238.15" y1="564.3633" y2="564.3633"/><ellipse cx="950.15" cy="579.1738" fill="#84BE84" rx="3" ry="3" style="stroke:#038048;stroke-width:1.0;"/><text fill="#000000" font-family="sans-serif" font-size="14" lengthAdjust="spacing" textLength="241" x="959.15" y="583.4707">GetDevice() : ComPtr&lt;ID3D12Device&gt;</text><ellipse cx="950.15" cy="597.7949" fill="#84BE84" rx="3" ry="3" style="stroke:#038048;stroke-width:1.0;"/><text fill="#000000" font-family="sans-serif" font-size="14" lengthAdjust="spacing" textLength="223" x="959.15" y="602.0918">GetDXGI() : ComPtr&lt;IDXGIFactory&gt;</text><ellipse cx="950.15" cy="616.416" fill="#84BE84" rx="3" ry="3" style="stroke:#038048;stroke-width:1.0;"/><text fill="#000000" font-family="sans-serif" font-size="14" lengthAdjust="spacing" textLength="66" x="959.15" y="620.7129">Init() : void</text></g><!--class Engine--><g id="elem_Engine"><rect codeLine="52" fill="#F1F1F1" height="345.9375" id="Engine" rx="2.5" ry="2.5" style="stroke:#181818;stroke-width:0.5;" width="338" x="546.15" y="7"/><ellipse cx="688.9" cy="23" fill="#ADD1B2" rx="11" ry="11" style="stroke:#181818;stroke-width:1.0;"/><path d="M691.6656,18.875 Q691.8219,18.6563 692.0094,18.5469 Q692.1969,18.4375 692.4156,18.4375 Q692.7906,18.4375 693.025,18.7031 Q693.2594,18.9531 693.2594,19.5625 L693.2594,21.0156 Q693.2594,21.625 693.025,21.8906 Q692.7906,22.1563 692.4156,22.1563 Q692.0719,22.1563 691.8688,21.9531 Q691.6656,21.7656 691.5563,21.25 Q691.5094,20.8906 691.3219,20.7031 Q690.9938,20.3281 690.3844,20.1094 Q689.775,19.8906 689.15,19.8906 Q688.3844,19.8906 687.7438,20.2188 Q687.1188,20.5469 686.6188,21.2969 Q686.1344,22.0469 686.1344,23.0781 L686.1344,24.1719 Q686.1344,25.4063 687.025,26.2344 Q687.9156,27.0469 689.5094,27.0469 Q690.4469,27.0469 691.1031,26.7969 Q691.4938,26.6406 691.9156,26.2031 Q692.1813,25.9375 692.3219,25.8594 Q692.4781,25.7813 692.6813,25.7813 Q693.0094,25.7813 693.2594,26.0469 Q693.525,26.2969 693.525,26.6406 Q693.525,26.9844 693.1813,27.3906 Q692.6813,27.9688 691.8844,28.2969 Q690.8063,28.75 689.5094,28.75 Q687.9938,28.75 686.7906,28.125 Q685.8063,27.625 685.1188,26.5625 Q684.4313,25.4844 684.4313,24.2031 L684.4313,23.0469 Q684.4313,21.7188 685.0406,20.5781 Q685.6656,19.4219 686.7594,18.8125 Q687.8531,18.1875 689.0875,18.1875 Q689.8219,18.1875 690.4625,18.3594 Q691.1188,18.5156 691.6656,18.875 Z " fill="#000000"/><text fill="#000000" font-family="sans-serif" font-size="14" lengthAdjust="spacing" textLength="44" x="709.4" y="28.7969">Engine</text><line style="stroke:#181818;stroke-width:0.5;" x1="547.15" x2="883.15" y1="39" y2="39"/><rect fill="none" height="6" style="stroke:#C82930;stroke-width:1.0;" width="6" x="554.15" y="50.8105"/><text fill="#000000" font-family="sans-serif" font-size="14" lengthAdjust="spacing" textLength="137" x="566.15" y="58.1074">_window : WindowInfo</text><rect fill="none" height="6" style="stroke:#C82930;stroke-width:1.0;" width="6" x="554.15" y="69.4316"/><text fill="#000000" font-family="sans-serif" font-size="14" lengthAdjust="spacing" textLength="281" x="566.15" y="76.7285">_cmdQueue : shared_ptr&lt;CommandQueue&gt;</text><rect fill="none" height="6" style="stroke:#C82930;stroke-width:1.0;" width="6" x="554.15" y="88.0527"/><text fill="#000000" font-family="sans-serif" font-size="14" lengthAdjust="spacing" textLength="215" x="566.15" y="95.3496">_cb : shared_ptr&lt;ConstantBuffer&gt;</text><rect fill="none" height="6" style="stroke:#C82930;stroke-width:1.0;" width="6" x="554.15" y="106.6738"/><text fill="#000000" font-family="sans-serif" font-size="14" lengthAdjust="spacing" textLength="189" x="566.15" y="113.9707">_device : shared_ptr&lt;Device&gt;</text><rect fill="none" height="6" style="stroke:#C82930;stroke-width:1.0;" width="6" x="554.15" y="125.2949"/><text fill="#000000" font-family="sans-serif" font-size="14" lengthAdjust="spacing" textLength="282" x="566.15" y="132.5918">_rootSignature : shared_ptr&lt;RootSignature&gt;</text><rect fill="none" height="6" style="stroke:#C82930;stroke-width:1.0;" width="6" x="554.15" y="143.916"/><text fill="#000000" font-family="sans-serif" font-size="14" lengthAdjust="spacing" textLength="245" x="566.15" y="151.2129">_swapChain : shared_ptr&lt;SwapChain&gt;</text><line style="stroke:#181818;stroke-width:0.5;" x1="547.15" x2="883.15" y1="158.7266" y2="158.7266"/><ellipse cx="557.15" cy="173.5371" fill="#84BE84" rx="3" ry="3" style="stroke:#038048;stroke-width:1.0;"/><text fill="#000000" font-family="sans-serif" font-size="14" lengthAdjust="spacing" textLength="309" x="566.15" y="177.834">GetCmdQueue() : shared_ptr&lt;CommandQueue&gt;</text><ellipse cx="557.15" cy="192.1582" fill="#84BE84" rx="3" ry="3" style="stroke:#038048;stroke-width:1.0;"/><text fill="#000000" font-family="sans-serif" font-size="14" lengthAdjust="spacing" textLength="244" x="566.15" y="196.4551">GetCB() : shared_ptr&lt;ConstantBuffer&gt;</text><ellipse cx="557.15" cy="210.7793" fill="#84BE84" rx="3" ry="3" style="stroke:#038048;stroke-width:1.0;"/><text fill="#000000" font-family="sans-serif" font-size="14" lengthAdjust="spacing" textLength="216" x="566.15" y="215.0762">GetDevice() : shared_ptr&lt;Device&gt;</text><ellipse cx="557.15" cy="229.4004" fill="#84BE84" rx="3" ry="3" style="stroke:#038048;stroke-width:1.0;"/><text fill="#000000" font-family="sans-serif" font-size="14" lengthAdjust="spacing" textLength="312" x="566.15" y="233.6973">GetRootSignature() : shared_ptr&lt;RootSignature&gt;</text><ellipse cx="557.15" cy="248.0215" fill="#84BE84" rx="3" ry="3" style="stroke:#038048;stroke-width:1.0;"/><text fill="#000000" font-family="sans-serif" font-size="14" lengthAdjust="spacing" textLength="272" x="566.15" y="252.3184">GetSwapChain() : shared_ptr&lt;SwapChain&gt;</text><ellipse cx="557.15" cy="266.6426" fill="#84BE84" rx="3" ry="3" style="stroke:#038048;stroke-width:1.0;"/><text fill="#000000" font-family="sans-serif" font-size="14" lengthAdjust="spacing" textLength="212" x="566.15" y="270.9395">Init(const WindowInfo&amp; info) : void</text><ellipse cx="557.15" cy="285.2637" fill="#84BE84" rx="3" ry="3" style="stroke:#038048;stroke-width:1.0;"/><text fill="#000000" font-family="sans-serif" font-size="14" lengthAdjust="spacing" textLength="95" x="566.15" y="289.5605">Render() : void</text><ellipse cx="557.15" cy="303.8848" fill="#84BE84" rx="3" ry="3" style="stroke:#038048;stroke-width:1.0;"/><text fill="#000000" font-family="sans-serif" font-size="14" lengthAdjust="spacing" textLength="131" x="566.15" y="308.1816">RenderBegin() : void</text><ellipse cx="557.15" cy="322.5059" fill="#84BE84" rx="3" ry="3" style="stroke:#038048;stroke-width:1.0;"/><text fill="#000000" font-family="sans-serif" font-size="14" lengthAdjust="spacing" textLength="120" x="566.15" y="326.8027">RenderEnd() : void</text><ellipse cx="557.15" cy="341.127" fill="#84BE84" rx="3" ry="3" style="stroke:#038048;stroke-width:1.0;"/><text fill="#000000" font-family="sans-serif" font-size="14" lengthAdjust="spacing" textLength="256" x="566.15" y="345.4238">ResizeWindow(int width, int height) : void</text></g><!--class Mesh--><g id="elem_Mesh"><rect codeLine="72" fill="#F1F1F1" height="141.1055" id="Mesh" rx="2.5" ry="2.5" style="stroke:#181818;stroke-width:0.5;" width="293" x="1502.65" y="478"/><ellipse cx="1627.9" cy="494" fill="#ADD1B2" rx="11" ry="11" style="stroke:#181818;stroke-width:1.0;"/><path d="M1630.6656,489.875 Q1630.8219,489.6563 1631.0094,489.5469 Q1631.1969,489.4375 1631.4156,489.4375 Q1631.7906,489.4375 1632.025,489.7031 Q1632.2594,489.9531 1632.2594,490.5625 L1632.2594,492.0156 Q1632.2594,492.625 1632.025,492.8906 Q1631.7906,493.1563 1631.4156,493.1563 Q1631.0719,493.1563 1630.8688,492.9531 Q1630.6656,492.7656 1630.5563,492.25 Q1630.5094,491.8906 1630.3219,491.7031 Q1629.9938,491.3281 1629.3844,491.1094 Q1628.775,490.8906 1628.15,490.8906 Q1627.3844,490.8906 1626.7438,491.2188 Q1626.1188,491.5469 1625.6188,492.2969 Q1625.1344,493.0469 1625.1344,494.0781 L1625.1344,495.1719 Q1625.1344,496.4063 1626.025,497.2344 Q1626.9156,498.0469 1628.5094,498.0469 Q1629.4469,498.0469 1630.1031,497.7969 Q1630.4938,497.6406 1630.9156,497.2031 Q1631.1813,496.9375 1631.3219,496.8594 Q1631.4781,496.7813 1631.6813,496.7813 Q1632.0094,496.7813 1632.2594,497.0469 Q1632.525,497.2969 1632.525,497.6406 Q1632.525,497.9844 1632.1813,498.3906 Q1631.6813,498.9688 1630.8844,499.2969 Q1629.8063,499.75 1628.5094,499.75 Q1626.9938,499.75 1625.7906,499.125 Q1624.8063,498.625 1624.1188,497.5625 Q1623.4313,496.4844 1623.4313,495.2031 L1623.4313,494.0469 Q1623.4313,492.7188 1624.0406,491.5781 Q1624.6656,490.4219 1625.7594,489.8125 Q1626.8531,489.1875 1628.0875,489.1875 Q1628.8219,489.1875 1629.4625,489.3594 Q1630.1188,489.5156 1630.6656,489.875 Z " fill="#000000"/><text fill="#000000" font-family="sans-serif" font-size="14" lengthAdjust="spacing" textLength="34" x="1648.4" y="499.7969">Mesh</text><line style="stroke:#181818;stroke-width:0.5;" x1="1503.65" x2="1794.65" y1="510" y2="510"/><rect fill="none" height="6" style="stroke:#C82930;stroke-width:1.0;" width="6" x="1510.65" y="521.8105"/><text fill="#000000" font-family="sans-serif" font-size="14" lengthAdjust="spacing" textLength="267" x="1522.65" y="529.1074">_vertexBuffer : ComPtr&lt;ID3D12Resource&gt;</text><rect fill="none" height="6" style="stroke:#C82930;stroke-width:1.0;" width="6" x="1510.65" y="540.4316"/><text fill="#000000" font-family="sans-serif" font-size="14" lengthAdjust="spacing" textLength="173" x="1522.65" y="547.7285">_vertexCount : unsigned int</text><line style="stroke:#181818;stroke-width:0.5;" x1="1503.65" x2="1794.65" y1="555.2422" y2="555.2422"/><ellipse cx="1513.65" cy="570.0527" fill="#84BE84" rx="3" ry="3" style="stroke:#038048;stroke-width:1.0;"/><text fill="#000000" font-family="sans-serif" font-size="14" lengthAdjust="spacing" textLength="196" x="1522.65" y="574.3496">Init(vector&lt;Vertex&gt;&amp; vec) : void</text><ellipse cx="1513.65" cy="588.6738" fill="#84BE84" rx="3" ry="3" style="stroke:#038048;stroke-width:1.0;"/><text fill="#000000" font-family="sans-serif" font-size="14" lengthAdjust="spacing" textLength="95" x="1522.65" y="592.9707">Render() : void</text><ellipse cx="1513.65" cy="607.2949" fill="#84BE84" rx="3" ry="3" style="stroke:#038048;stroke-width:1.0;"/><text fill="#000000" font-family="sans-serif" font-size="14" lengthAdjust="spacing" textLength="254" x="1522.65" y="611.5918">SetTransform(const Transform&amp; t) : void</text></g><!--class RootSignature--><g id="elem_RootSignature"><rect codeLine="81" fill="#F1F1F1" height="103.8633" id="RootSignature" rx="2.5" ry="2.5" style="stroke:#181818;stroke-width:0.5;" width="333" x="608.65" y="846.5"/><ellipse cx="725.4" cy="862.5" fill="#ADD1B2" rx="11" ry="11" style="stroke:#181818;stroke-width:1.0;"/><path d="M728.1656,858.375 Q728.3219,858.1563 728.5094,858.0469 Q728.6969,857.9375 728.9156,857.9375 Q729.2906,857.9375 729.525,858.2031 Q729.7594,858.4531 729.7594,859.0625 L729.7594,860.5156 Q729.7594,861.125 729.525,861.3906 Q729.2906,861.6563 728.9156,861.6563 Q728.5719,861.6563 728.3688,861.4531 Q728.1656,861.2656 728.0563,860.75 Q728.0094,860.3906 727.8219,860.2031 Q727.4938,859.8281 726.8844,859.6094 Q726.275,859.3906 725.65,859.3906 Q724.8844,859.3906 724.2438,859.7188 Q723.6188,860.0469 723.1188,860.7969 Q722.6344,861.5469 722.6344,862.5781 L722.6344,863.6719 Q722.6344,864.9063 723.525,865.7344 Q724.4156,866.5469 726.0094,866.5469 Q726.9469,866.5469 727.6031,866.2969 Q727.9938,866.1406 728.4156,865.7031 Q728.6813,865.4375 728.8219,865.3594 Q728.9781,865.2813 729.1813,865.2813 Q729.5094,865.2813 729.7594,865.5469 Q730.025,865.7969 730.025,866.1406 Q730.025,866.4844 729.6813,866.8906 Q729.1813,867.4688 728.3844,867.7969 Q727.3063,868.25 726.0094,868.25 Q724.4938,868.25 723.2906,867.625 Q722.3063,867.125 721.6188,866.0625 Q720.9313,864.9844 720.9313,863.7031 L720.9313,862.5469 Q720.9313,861.2188 721.5406,860.0781 Q722.1656,858.9219 723.2594,858.3125 Q724.3531,857.6875 725.5875,857.6875 Q726.3219,857.6875 726.9625,857.8594 Q727.6188,858.0156 728.1656,858.375 Z " fill="#000000"/><text fill="#000000" font-family="sans-serif" font-size="14" lengthAdjust="spacing" textLength="91" x="745.9" y="868.2969">RootSignature</text><line style="stroke:#181818;stroke-width:0.5;" x1="609.65" x2="940.65" y1="878.5" y2="878.5"/><rect fill="none" height="6" style="stroke:#C82930;stroke-width:1.0;" width="6" x="616.65" y="890.3105"/><text fill="#000000" font-family="sans-serif" font-size="14" lengthAdjust="spacing" textLength="280" x="628.65" y="897.6074">_signature : ComPtr&lt;ID3D12RootSignature&gt;</text><line style="stroke:#181818;stroke-width:0.5;" x1="609.65" x2="940.65" y1="905.1211" y2="905.1211"/><ellipse cx="619.65" cy="919.9316" fill="#84BE84" rx="3" ry="3" style="stroke:#038048;stroke-width:1.0;"/><text fill="#000000" font-family="sans-serif" font-size="14" lengthAdjust="spacing" textLength="307" x="628.65" y="924.2285">GetSignature() : ComPtr&lt;ID3D12RootSignature&gt;</text><ellipse cx="619.65" cy="938.5527" fill="#84BE84" rx="3" ry="3" style="stroke:#038048;stroke-width:1.0;"/><text fill="#000000" font-family="sans-serif" font-size="14" lengthAdjust="spacing" textLength="264" x="628.65" y="942.8496">Init(ComPtr&lt;ID3D12Device&gt; device) : void</text></g><!--class Shader--><g id="elem_Shader"><rect codeLine="88" fill="#F1F1F1" height="215.5898" id="Shader" rx="2.5" ry="2.5" style="stroke:#181818;stroke-width:0.5;" width="1044" x="1844.15" y="72"/><ellipse cx="2338.9" cy="88" fill="#ADD1B2" rx="11" ry="11" style="stroke:#181818;stroke-width:1.0;"/><path d="M2341.6656,83.875 Q2341.8219,83.6563 2342.0094,83.5469 Q2342.1969,83.4375 2342.4156,83.4375 Q2342.7906,83.4375 2343.025,83.7031 Q2343.2594,83.9531 2343.2594,84.5625 L2343.2594,86.0156 Q2343.2594,86.625 2343.025,86.8906 Q2342.7906,87.1563 2342.4156,87.1563 Q2342.0719,87.1563 2341.8688,86.9531 Q2341.6656,86.7656 2341.5563,86.25 Q2341.5094,85.8906 2341.3219,85.7031 Q2340.9938,85.3281 2340.3844,85.1094 Q2339.775,84.8906 2339.15,84.8906 Q2338.3844,84.8906 2337.7438,85.2188 Q2337.1188,85.5469 2336.6188,86.2969 Q2336.1344,87.0469 2336.1344,88.0781 L2336.1344,89.1719 Q2336.1344,90.4063 2337.025,91.2344 Q2337.9156,92.0469 2339.5094,92.0469 Q2340.4469,92.0469 2341.1031,91.7969 Q2341.4938,91.6406 2341.9156,91.2031 Q2342.1813,90.9375 2342.3219,90.8594 Q2342.4781,90.7813 2342.6813,90.7813 Q2343.0094,90.7813 2343.2594,91.0469 Q2343.525,91.2969 2343.525,91.6406 Q2343.525,91.9844 2343.1813,92.3906 Q2342.6813,92.9688 2341.8844,93.2969 Q2340.8063,93.75 2339.5094,93.75 Q2337.9938,93.75 2336.7906,93.125 Q2335.8063,92.625 2335.1188,91.5625 Q2334.4313,90.4844 2334.4313,89.2031 L2334.4313,88.0469 Q2334.4313,86.7188 2335.0406,85.5781 Q2335.6656,84.4219 2336.7594,83.8125 Q2337.8531,83.1875 2339.0875,83.1875 Q2339.8219,83.1875 2340.4625,83.3594 Q2341.1188,83.5156 2341.6656,83.875 Z " fill="#000000"/><text fill="#000000" font-family="sans-serif" font-size="14" lengthAdjust="spacing" textLength="46" x="2359.4" y="93.7969">Shader</text><line style="stroke:#181818;stroke-width:0.5;" x1="1845.15" x2="2887.15" y1="104" y2="104"/><rect fill="none" height="6" style="stroke:#C82930;stroke-width:1.0;" width="6" x="1852.15" y="115.8105"/><text fill="#000000" font-family="sans-serif" font-size="14" lengthAdjust="spacing" textLength="295" x="1864.15" y="123.1074">_pipelineState : ComPtr&lt;ID3D12PipelineState&gt;</text><rect fill="none" height="6" style="stroke:#C82930;stroke-width:1.0;" width="6" x="1852.15" y="134.4316"/><text fill="#000000" font-family="sans-serif" font-size="14" lengthAdjust="spacing" textLength="188" x="1864.15" y="141.7285">_errBlob : ComPtr&lt;ID3DBlob&gt;</text><rect fill="none" height="6" style="stroke:#C82930;stroke-width:1.0;" width="6" x="1852.15" y="153.0527"/><text fill="#000000" font-family="sans-serif" font-size="14" lengthAdjust="spacing" textLength="185" x="1864.15" y="160.3496">_psBlob : ComPtr&lt;ID3DBlob&gt;</text><rect fill="none" height="6" style="stroke:#C82930;stroke-width:1.0;" width="6" x="1852.15" y="171.6738"/><text fill="#000000" font-family="sans-serif" font-size="14" lengthAdjust="spacing" textLength="184" x="1864.15" y="178.9707">_vsBlob : ComPtr&lt;ID3DBlob&gt;</text><line style="stroke:#181818;stroke-width:0.5;" x1="1845.15" x2="2887.15" y1="186.4844" y2="186.4844"/><rect fill="#F24D5C" height="6" style="stroke:#C82930;stroke-width:1.0;" width="6" x="1852.15" y="198.2949"/><text fill="#000000" font-family="sans-serif" font-size="14" lengthAdjust="spacing" textLength="558" x="1864.15" y="205.5918">CreatePixelShader(const wstring&amp; path, const string&amp; name, const string&amp; version) : void</text><rect fill="#F24D5C" height="6" style="stroke:#C82930;stroke-width:1.0;" width="6" x="1852.15" y="216.916"/><text fill="#000000" font-family="sans-serif" font-size="14" lengthAdjust="spacing" textLength="1018" x="1864.15" y="224.2129">CreateShader(const wstring&amp; path, const string&amp; name, const string&amp; version, ComPtr&lt;ID3DBlob&gt;&amp; blob, D3D12_SHADER_BYTECODE&amp; shaderByteCode) : void</text><rect fill="#F24D5C" height="6" style="stroke:#C82930;stroke-width:1.0;" width="6" x="1852.15" y="235.5371"/><text fill="#000000" font-family="sans-serif" font-size="14" lengthAdjust="spacing" textLength="569" x="1864.15" y="242.834">CreateVertexShader(const wstring&amp; path, const string&amp; name, const string&amp; version) : void</text><ellipse cx="1855.15" cy="257.1582" fill="#84BE84" rx="3" ry="3" style="stroke:#038048;stroke-width:1.0;"/><text fill="#000000" font-family="sans-serif" font-size="14" lengthAdjust="spacing" textLength="189" x="1864.15" y="261.4551">Init(const wstring&amp; path) : void</text><ellipse cx="1855.15" cy="275.7793" fill="#84BE84" rx="3" ry="3" style="stroke:#038048;stroke-width:1.0;"/><text fill="#000000" font-family="sans-serif" font-size="14" lengthAdjust="spacing" textLength="93" x="1864.15" y="280.0762">Update() : void</text></g><!--class SwapChain--><g id="elem_SwapChain"><rect codeLine="101" fill="#F1F1F1" height="308.6953" id="SwapChain" rx="2.5" ry="2.5" style="stroke:#181818;stroke-width:0.5;" width="925" x="809.65" y="1113"/><ellipse cx="1232.4" cy="1129" fill="#ADD1B2" rx="11" ry="11" style="stroke:#181818;stroke-width:1.0;"/><path d="M1235.1656,1124.875 Q1235.3219,1124.6563 1235.5094,1124.5469 Q1235.6969,1124.4375 1235.9156,1124.4375 Q1236.2906,1124.4375 1236.525,1124.7031 Q1236.7594,1124.9531 1236.7594,1125.5625 L1236.7594,1127.0156 Q1236.7594,1127.625 1236.525,1127.8906 Q1236.2906,1128.1563 1235.9156,1128.1563 Q1235.5719,1128.1563 1235.3688,1127.9531 Q1235.1656,1127.7656 1235.0563,1127.25 Q1235.0094,1126.8906 1234.8219,1126.7031 Q1234.4938,1126.3281 1233.8844,1126.1094 Q1233.275,1125.8906 1232.65,1125.8906 Q1231.8844,1125.8906 1231.2438,1126.2188 Q1230.6188,1126.5469 1230.1188,1127.2969 Q1229.6344,1128.0469 1229.6344,1129.0781 L1229.6344,1130.1719 Q1229.6344,1131.4063 1230.525,1132.2344 Q1231.4156,1133.0469 1233.0094,1133.0469 Q1233.9469,1133.0469 1234.6031,1132.7969 Q1234.9938,1132.6406 1235.4156,1132.2031 Q1235.6813,1131.9375 1235.8219,1131.8594 Q1235.9781,1131.7813 1236.1813,1131.7813 Q1236.5094,1131.7813 1236.7594,1132.0469 Q1237.025,1132.2969 1237.025,1132.6406 Q1237.025,1132.9844 1236.6813,1133.3906 Q1236.1813,1133.9688 1235.3844,1134.2969 Q1234.3063,1134.75 1233.0094,1134.75 Q1231.4938,1134.75 1230.2906,1134.125 Q1229.3063,1133.625 1228.6188,1132.5625 Q1227.9313,1131.4844 1227.9313,1130.2031 L1227.9313,1129.0469 Q1227.9313,1127.7188 1228.5406,1126.5781 Q1229.1656,1125.4219 1230.2594,1124.8125 Q1231.3531,1124.1875 1232.5875,1124.1875 Q1233.3219,1124.1875 1233.9625,1124.3594 Q1234.6188,1124.5156 1235.1656,1124.875 Z " fill="#000000"/><text fill="#000000" font-family="sans-serif" font-size="14" lengthAdjust="spacing" textLength="71" x="1252.9" y="1134.7969">SwapChain</text><line style="stroke:#181818;stroke-width:0.5;" x1="810.65" x2="1733.65" y1="1145" y2="1145"/><rect fill="none" height="6" style="stroke:#C82930;stroke-width:1.0;" width="6" x="817.65" y="1156.8105"/><text fill="#000000" font-family="sans-serif" font-size="14" lengthAdjust="spacing" textLength="277" x="829.65" y="1164.1074">_rtvHeap : ComPtr&lt;ID3D12DescriptorHeap&gt;</text><rect fill="none" height="6" style="stroke:#C82930;stroke-width:1.0;" width="6" x="817.65" y="1175.4316"/><text fill="#000000" font-family="sans-serif" font-size="14" lengthAdjust="spacing" textLength="245" x="829.65" y="1182.7285">_rtvBuffer : ComPtr&lt;ID3D12Resource&gt;</text><rect fill="none" height="6" style="stroke:#C82930;stroke-width:1.0;" width="6" x="817.65" y="1194.0527"/><text fill="#000000" font-family="sans-serif" font-size="14" lengthAdjust="spacing" textLength="258" x="829.65" y="1201.3496">_swapChain : ComPtr&lt;IDXGISwapChain&gt;</text><rect fill="none" height="6" style="stroke:#C82930;stroke-width:1.0;" width="6" x="817.65" y="1212.6738"/><text fill="#000000" font-family="sans-serif" font-size="14" lengthAdjust="spacing" textLength="320" x="829.65" y="1219.9707">_rtvHandle : D3D12_CPU_DESCRIPTOR_HANDLE</text><rect fill="none" height="6" style="stroke:#C82930;stroke-width:1.0;" width="6" x="817.65" y="1231.2949"/><text fill="#000000" font-family="sans-serif" font-size="14" lengthAdjust="spacing" textLength="198" x="829.65" y="1238.5918">_backBufferIndex : unsigned int</text><line style="stroke:#181818;stroke-width:0.5;" x1="810.65" x2="1733.65" y1="1246.1055" y2="1246.1055"/><ellipse cx="820.65" cy="1260.916" fill="#84BE84" rx="3" ry="3" style="stroke:#038048;stroke-width:1.0;"/><text fill="#000000" font-family="sans-serif" font-size="14" lengthAdjust="spacing" textLength="313" x="829.65" y="1265.2129">GetBackRTVBuffer() : ComPtr&lt;ID3D12Resource&gt;</text><ellipse cx="820.65" cy="1279.5371" fill="#84BE84" rx="3" ry="3" style="stroke:#038048;stroke-width:1.0;"/><text fill="#000000" font-family="sans-serif" font-size="14" lengthAdjust="spacing" textLength="357" x="829.65" y="1283.834">GetRenderTarget(int index) : ComPtr&lt;ID3D12Resource&gt;</text><ellipse cx="820.65" cy="1298.1582" fill="#84BE84" rx="3" ry="3" style="stroke:#038048;stroke-width:1.0;"/><text fill="#000000" font-family="sans-serif" font-size="14" lengthAdjust="spacing" textLength="285" x="829.65" y="1302.4551">GetSwapChain() : ComPtr&lt;IDXGISwapChain&gt;</text><ellipse cx="820.65" cy="1316.7793" fill="#84BE84" rx="3" ry="3" style="stroke:#038048;stroke-width:1.0;"/><text fill="#000000" font-family="sans-serif" font-size="14" lengthAdjust="spacing" textLength="344" x="829.65" y="1321.0762">GetBackRTV() : D3D12_CPU_DESCRIPTOR_HANDLE</text><rect fill="#F24D5C" height="6" style="stroke:#C82930;stroke-width:1.0;" width="6" x="817.65" y="1332.4004"/><text fill="#000000" font-family="sans-serif" font-size="14" lengthAdjust="spacing" textLength="317" x="829.65" y="1339.6973">CreateRTV(ComPtr&lt;ID3D12Device&gt; device) : void</text><rect fill="#F24D5C" height="6" style="stroke:#C82930;stroke-width:1.0;" width="6" x="817.65" y="1351.0215"/><text fill="#000000" font-family="sans-serif" font-size="14" lengthAdjust="spacing" textLength="789" x="829.65" y="1358.3184">CreateSwapChain(const WindowInfo&amp; info, ComPtr&lt;IDXGIFactory&gt; dxgi, ComPtr&lt;ID3D12CommandQueue&gt; cmdQueue) : void</text><ellipse cx="820.65" cy="1372.6426" fill="#84BE84" rx="3" ry="3" style="stroke:#038048;stroke-width:1.0;"/><text fill="#000000" font-family="sans-serif" font-size="14" lengthAdjust="spacing" textLength="899" x="829.65" y="1376.9395">Init(const WindowInfo&amp; info, ComPtr&lt;ID3D12Device&gt; device, ComPtr&lt;IDXGIFactory&gt; dxgi, ComPtr&lt;ID3D12CommandQueue&gt; cmdQueue) : void</text><ellipse cx="820.65" cy="1391.2637" fill="#84BE84" rx="3" ry="3" style="stroke:#038048;stroke-width:1.0;"/><text fill="#000000" font-family="sans-serif" font-size="14" lengthAdjust="spacing" textLength="97" x="829.65" y="1395.5605">Present() : void</text><ellipse cx="820.65" cy="1409.8848" fill="#84BE84" rx="3" ry="3" style="stroke:#038048;stroke-width:1.0;"/><text fill="#000000" font-family="sans-serif" font-size="14" lengthAdjust="spacing" textLength="115" x="829.65" y="1414.1816">SwapIndex() : void</text></g><!--class Transform--><g id="elem_Transform"><rect codeLine="419" fill="#F1F1F1" height="66.6211" id="Transform" rx="2.5" ry="2.5" style="stroke:#181818;stroke-width:0.5;" width="146" x="1486.15" y="146.5"/><ellipse cx="1523.2" cy="162.5" fill="#ADD1B2" rx="11" ry="11" style="stroke:#181818;stroke-width:1.0;"/><path d="M1525.9656,158.375 Q1526.1219,158.1563 1526.3094,158.0469 Q1526.4969,157.9375 1526.7156,157.9375 Q1527.0906,157.9375 1527.325,158.2031 Q1527.5594,158.4531 1527.5594,159.0625 L1527.5594,160.5156 Q1527.5594,161.125 1527.325,161.3906 Q1527.0906,161.6563 1526.7156,161.6563 Q1526.3719,161.6563 1526.1688,161.4531 Q1525.9656,161.2656 1525.8563,160.75 Q1525.8094,160.3906 1525.6219,160.2031 Q1525.2938,159.8281 1524.6844,159.6094 Q1524.075,159.3906 1523.45,159.3906 Q1522.6844,159.3906 1522.0438,159.7188 Q1521.4188,160.0469 1520.9188,160.7969 Q1520.4344,161.5469 1520.4344,162.5781 L1520.4344,163.6719 Q1520.4344,164.9063 1521.325,165.7344 Q1522.2156,166.5469 1523.8094,166.5469 Q1524.7469,166.5469 1525.4031,166.2969 Q1525.7938,166.1406 1526.2156,165.7031 Q1526.4813,165.4375 1526.6219,165.3594 Q1526.7781,165.2813 1526.9813,165.2813 Q1527.3094,165.2813 1527.5594,165.5469 Q1527.825,165.7969 1527.825,166.1406 Q1527.825,166.4844 1527.4813,166.8906 Q1526.9813,167.4688 1526.1844,167.7969 Q1525.1063,168.25 1523.8094,168.25 Q1522.2938,168.25 1521.0906,167.625 Q1520.1063,167.125 1519.4188,166.0625 Q1518.7313,164.9844 1518.7313,163.7031 L1518.7313,162.5469 Q1518.7313,161.2188 1519.3406,160.0781 Q1519.9656,158.9219 1521.0594,158.3125 Q1522.1531,157.6875 1523.3875,157.6875 Q1524.1219,157.6875 1524.7625,157.8594 Q1525.4188,158.0156 1525.9656,158.375 Z " fill="#000000"/><text fill="#000000" font-family="sans-serif" font-size="14" lengthAdjust="spacing" textLength="65" x="1542.1" y="168.2969">Transform</text><line style="stroke:#181818;stroke-width:0.5;" x1="1487.15" x2="1631.15" y1="178.5" y2="178.5"/><ellipse cx="1497.15" cy="193.3105" fill="none" rx="3" ry="3" style="stroke:#038048;stroke-width:1.0;"/><text fill="#000000" font-family="sans-serif" font-size="14" lengthAdjust="spacing" textLength="120" x="1506.15" y="197.6074">offset : XMFLOAT4</text><line style="stroke:#181818;stroke-width:0.5;" x1="1487.15" x2="1631.15" y1="205.1211" y2="205.1211"/></g><!--class Vertex--><g id="elem_Vertex"><rect codeLine="424" fill="#F1F1F1" height="85.2422" id="Vertex" rx="2.5" ry="2.5" style="stroke:#181818;stroke-width:0.5;" width="142" x="1667.15" y="137.5"/><ellipse cx="1713.9" cy="153.5" fill="#ADD1B2" rx="11" ry="11" style="stroke:#181818;stroke-width:1.0;"/><path d="M1716.6656,149.375 Q1716.8219,149.1563 1717.0094,149.0469 Q1717.1969,148.9375 1717.4156,148.9375 Q1717.7906,148.9375 1718.025,149.2031 Q1718.2594,149.4531 1718.2594,150.0625 L1718.2594,151.5156 Q1718.2594,152.125 1718.025,152.3906 Q1717.7906,152.6563 1717.4156,152.6563 Q1717.0719,152.6563 1716.8688,152.4531 Q1716.6656,152.2656 1716.5563,151.75 Q1716.5094,151.3906 1716.3219,151.2031 Q1715.9938,150.8281 1715.3844,150.6094 Q1714.775,150.3906 1714.15,150.3906 Q1713.3844,150.3906 1712.7438,150.7188 Q1712.1188,151.0469 1711.6188,151.7969 Q1711.1344,152.5469 1711.1344,153.5781 L1711.1344,154.6719 Q1711.1344,155.9063 1712.025,156.7344 Q1712.9156,157.5469 1714.5094,157.5469 Q1715.4469,157.5469 1716.1031,157.2969 Q1716.4938,157.1406 1716.9156,156.7031 Q1717.1813,156.4375 1717.3219,156.3594 Q1717.4781,156.2813 1717.6813,156.2813 Q1718.0094,156.2813 1718.2594,156.5469 Q1718.525,156.7969 1718.525,157.1406 Q1718.525,157.4844 1718.1813,157.8906 Q1717.6813,158.4688 1716.8844,158.7969 Q1715.8063,159.25 1714.5094,159.25 Q1712.9938,159.25 1711.7906,158.625 Q1710.8063,158.125 1710.1188,157.0625 Q1709.4313,155.9844 1709.4313,154.7031 L1709.4313,153.5469 Q1709.4313,152.2188 1710.0406,151.0781 Q1710.6656,149.9219 1711.7594,149.3125 Q1712.8531,148.6875 1714.0875,148.6875 Q1714.8219,148.6875 1715.4625,148.8594 Q1716.1188,149.0156 1716.6656,149.375 Z " fill="#000000"/><text fill="#000000" font-family="sans-serif" font-size="14" lengthAdjust="spacing" textLength="40" x="1734.4" y="159.2969">Vertex</text><line style="stroke:#181818;stroke-width:0.5;" x1="1668.15" x2="1808.15" y1="169.5" y2="169.5"/><ellipse cx="1678.15" cy="184.3105" fill="none" rx="3" ry="3" style="stroke:#038048;stroke-width:1.0;"/><text fill="#000000" font-family="sans-serif" font-size="14" lengthAdjust="spacing" textLength="108" x="1687.15" y="188.6074">pos : XMFLOAT3</text><ellipse cx="1678.15" cy="202.9316" fill="none" rx="3" ry="3" style="stroke:#038048;stroke-width:1.0;"/><text fill="#000000" font-family="sans-serif" font-size="14" lengthAdjust="spacing" textLength="116" x="1687.15" y="207.2285">color : XMFLOAT4</text><line style="stroke:#181818;stroke-width:0.5;" x1="1668.15" x2="1808.15" y1="214.7422" y2="214.7422"/></g><!--class WindowInfo--><g id="elem_WindowInfo"><rect codeLine="430" fill="#F1F1F1" height="122.4844" id="WindowInfo" rx="2.5" ry="2.5" style="stroke:#181818;stroke-width:0.5;" width="126" x="652.15" y="487.5"/><ellipse cx="677.05" cy="503.5" fill="#ADD1B2" rx="11" ry="11" style="stroke:#181818;stroke-width:1.0;"/><path d="M679.8156,499.375 Q679.9719,499.1563 680.1594,499.0469 Q680.3469,498.9375 680.5656,498.9375 Q680.9406,498.9375 681.175,499.2031 Q681.4094,499.4531 681.4094,500.0625 L681.4094,501.5156 Q681.4094,502.125 681.175,502.3906 Q680.9406,502.6563 680.5656,502.6563 Q680.2219,502.6563 680.0188,502.4531 Q679.8156,502.2656 679.7063,501.75 Q679.6594,501.3906 679.4719,501.2031 Q679.1438,500.8281 678.5344,500.6094 Q677.925,500.3906 677.3,500.3906 Q676.5344,500.3906 675.8938,500.7188 Q675.2688,501.0469 674.7688,501.7969 Q674.2844,502.5469 674.2844,503.5781 L674.2844,504.6719 Q674.2844,505.9063 675.175,506.7344 Q676.0656,507.5469 677.6594,507.5469 Q678.5969,507.5469 679.2531,507.2969 Q679.6438,507.1406 680.0656,506.7031 Q680.3313,506.4375 680.4719,506.3594 Q680.6281,506.2813 680.8313,506.2813 Q681.1594,506.2813 681.4094,506.5469 Q681.675,506.7969 681.675,507.1406 Q681.675,507.4844 681.3313,507.8906 Q680.8313,508.4688 680.0344,508.7969 Q678.9563,509.25 677.6594,509.25 Q676.1438,509.25 674.9406,508.625 Q673.9563,508.125 673.2688,507.0625 Q672.5813,505.9844 672.5813,504.7031 L672.5813,503.5469 Q672.5813,502.2188 673.1906,501.0781 Q673.8156,499.9219 674.9094,499.3125 Q676.0031,498.6875 677.2375,498.6875 Q677.9719,498.6875 678.6125,498.8594 Q679.2688,499.0156 679.8156,499.375 Z " fill="#000000"/><text fill="#000000" font-family="sans-serif" font-size="14" lengthAdjust="spacing" textLength="72" x="693.25" y="509.2969">WindowInfo</text><line style="stroke:#181818;stroke-width:0.5;" x1="653.15" x2="777.15" y1="519.5" y2="519.5"/><ellipse cx="663.15" cy="534.3105" fill="none" rx="3" ry="3" style="stroke:#038048;stroke-width:1.0;"/><text fill="#000000" font-family="sans-serif" font-size="14" lengthAdjust="spacing" textLength="86" x="672.15" y="538.6074">hwnd : HWND</text><ellipse cx="663.15" cy="552.9316" fill="none" rx="3" ry="3" style="stroke:#038048;stroke-width:1.0;"/><text fill="#000000" font-family="sans-serif" font-size="14" lengthAdjust="spacing" textLength="100" x="672.15" y="557.2285">windowed : bool</text><ellipse cx="663.15" cy="571.5527" fill="none" rx="3" ry="3" style="stroke:#038048;stroke-width:1.0;"/><text fill="#000000" font-family="sans-serif" font-size="14" lengthAdjust="spacing" textLength="66" x="672.15" y="575.8496">height : int</text><ellipse cx="663.15" cy="590.1738" fill="none" rx="3" ry="3" style="stroke:#038048;stroke-width:1.0;"/><text fill="#000000" font-family="sans-serif" font-size="14" lengthAdjust="spacing" textLength="59" x="672.15" y="594.4707">width : int</text><line style="stroke:#181818;stroke-width:0.5;" x1="653.15" x2="777.15" y1="601.9844" y2="601.9844"/></g><!--class CD3DX12_DEFAULT--><g id="elem_CD3DX12_DEFAULT"><rect fill="#F1F1F1" height="48" id="CD3DX12_DEFAULT" rx="2.5" ry="2.5" style="stroke:#181818;stroke-width:0.5;" width="165" x="2923.65" y="156"/><ellipse cx="2938.65" cy="172" fill="#ADD1B2" rx="11" ry="11" style="stroke:#181818;stroke-width:1.0;"/><path d="M2941.4156,167.875 Q2941.5719,167.6563 2941.7594,167.5469 Q2941.9469,167.4375 2942.1656,167.4375 Q2942.5406,167.4375 2942.775,167.7031 Q2943.0094,167.9531 2943.0094,168.5625 L2943.0094,170.0156 Q2943.0094,170.625 2942.775,170.8906 Q2942.5406,171.1563 2942.1656,171.1563 Q2941.8219,171.1563 2941.6188,170.9531 Q2941.4156,170.7656 2941.3063,170.25 Q2941.2594,169.8906 2941.0719,169.7031 Q2940.7438,169.3281 2940.1344,169.1094 Q2939.525,168.8906 2938.9,168.8906 Q2938.1344,168.8906 2937.4938,169.2188 Q2936.8688,169.5469 2936.3688,170.2969 Q2935.8844,171.0469 2935.8844,172.0781 L2935.8844,173.1719 Q2935.8844,174.4063 2936.775,175.2344 Q2937.6656,176.0469 2939.2594,176.0469 Q2940.1969,176.0469 2940.8531,175.7969 Q2941.2438,175.6406 2941.6656,175.2031 Q2941.9313,174.9375 2942.0719,174.8594 Q2942.2281,174.7813 2942.4313,174.7813 Q2942.7594,174.7813 2943.0094,175.0469 Q2943.275,175.2969 2943.275,175.6406 Q2943.275,175.9844 2942.9313,176.3906 Q2942.4313,176.9688 2941.6344,177.2969 Q2940.5563,177.75 2939.2594,177.75 Q2937.7438,177.75 2936.5406,177.125 Q2935.5563,176.625 2934.8688,175.5625 Q2934.1813,174.4844 2934.1813,173.2031 L2934.1813,172.0469 Q2934.1813,170.7188 2934.7906,169.5781 Q2935.4156,168.4219 2936.5094,167.8125 Q2937.6031,167.1875 2938.8375,167.1875 Q2939.5719,167.1875 2940.2125,167.3594 Q2940.8688,167.5156 2941.4156,167.875 Z " fill="#000000"/><text fill="#000000" font-family="sans-serif" font-size="14" lengthAdjust="spacing" textLength="133" x="2952.65" y="177.7969">CD3DX12_DEFAULT</text><line style="stroke:#181818;stroke-width:0.5;" x1="2924.65" x2="3087.65" y1="188" y2="188"/><line style="stroke:#181818;stroke-width:0.5;" x1="2924.65" x2="3087.65" y1="196" y2="196"/></g><!--class CD3DX12_BLEND_DESC--><g id="elem_CD3DX12_BLEND_DESC"><rect fill="#F1F1F1" height="48" id="CD3DX12_BLEND_DESC" rx="2.5" ry="2.5" style="stroke:#181818;stroke-width:0.5;" width="193" x="2167.65" y="524.5"/><ellipse cx="2182.65" cy="540.5" fill="#ADD1B2" rx="11" ry="11" style="stroke:#181818;stroke-width:1.0;"/><path d="M2185.4156,536.375 Q2185.5719,536.1563 2185.7594,536.0469 Q2185.9469,535.9375 2186.1656,535.9375 Q2186.5406,535.9375 2186.775,536.2031 Q2187.0094,536.4531 2187.0094,537.0625 L2187.0094,538.5156 Q2187.0094,539.125 2186.775,539.3906 Q2186.5406,539.6563 2186.1656,539.6563 Q2185.8219,539.6563 2185.6188,539.4531 Q2185.4156,539.2656 2185.3063,538.75 Q2185.2594,538.3906 2185.0719,538.2031 Q2184.7438,537.8281 2184.1344,537.6094 Q2183.525,537.3906 2182.9,537.3906 Q2182.1344,537.3906 2181.4938,537.7188 Q2180.8688,538.0469 2180.3688,538.7969 Q2179.8844,539.5469 2179.8844,540.5781 L2179.8844,541.6719 Q2179.8844,542.9063 2180.775,543.7344 Q2181.6656,544.5469 2183.2594,544.5469 Q2184.1969,544.5469 2184.8531,544.2969 Q2185.2438,544.1406 2185.6656,543.7031 Q2185.9313,543.4375 2186.0719,543.3594 Q2186.2281,543.2813 2186.4313,543.2813 Q2186.7594,543.2813 2187.0094,543.5469 Q2187.275,543.7969 2187.275,544.1406 Q2187.275,544.4844 2186.9313,544.8906 Q2186.4313,545.4688 2185.6344,545.7969 Q2184.5563,546.25 2183.2594,546.25 Q2181.7438,546.25 2180.5406,545.625 Q2179.5563,545.125 2178.8688,544.0625 Q2178.1813,542.9844 2178.1813,541.7031 L2178.1813,540.5469 Q2178.1813,539.2188 2178.7906,538.0781 Q2179.4156,536.9219 2180.5094,536.3125 Q2181.6031,535.6875 2182.8375,535.6875 Q2183.5719,535.6875 2184.2125,535.8594 Q2184.8688,536.0156 2185.4156,536.375 Z " fill="#000000"/><text fill="#000000" font-family="sans-serif" font-size="14" lengthAdjust="spacing" textLength="161" x="2196.65" y="546.2969">CD3DX12_BLEND_DESC</text><line style="stroke:#181818;stroke-width:0.5;" x1="2168.65" x2="2359.65" y1="556.5" y2="556.5"/><line style="stroke:#181818;stroke-width:0.5;" x1="2168.65" x2="2359.65" y1="564.5" y2="564.5"/></g><!--class CD3DX12_CPU_DESCRIPTOR_HANDLE--><g id="elem_CD3DX12_CPU_DESCRIPTOR_HANDLE"><rect fill="#F1F1F1" height="48" id="CD3DX12_CPU_DESCRIPTOR_HANDLE" rx="2.5" ry="2.5" style="stroke:#181818;stroke-width:0.5;" width="290" x="2396.15" y="524.5"/><ellipse cx="2411.15" cy="540.5" fill="#ADD1B2" rx="11" ry="11" style="stroke:#181818;stroke-width:1.0;"/><path d="M2413.9156,536.375 Q2414.0719,536.1563 2414.2594,536.0469 Q2414.4469,535.9375 2414.6656,535.9375 Q2415.0406,535.9375 2415.275,536.2031 Q2415.5094,536.4531 2415.5094,537.0625 L2415.5094,538.5156 Q2415.5094,539.125 2415.275,539.3906 Q2415.0406,539.6563 2414.6656,539.6563 Q2414.3219,539.6563 2414.1188,539.4531 Q2413.9156,539.2656 2413.8063,538.75 Q2413.7594,538.3906 2413.5719,538.2031 Q2413.2438,537.8281 2412.6344,537.6094 Q2412.025,537.3906 2411.4,537.3906 Q2410.6344,537.3906 2409.9938,537.7188 Q2409.3688,538.0469 2408.8688,538.7969 Q2408.3844,539.5469 2408.3844,540.5781 L2408.3844,541.6719 Q2408.3844,542.9063 2409.275,543.7344 Q2410.1656,544.5469 2411.7594,544.5469 Q2412.6969,544.5469 2413.3531,544.2969 Q2413.7438,544.1406 2414.1656,543.7031 Q2414.4313,543.4375 2414.5719,543.3594 Q2414.7281,543.2813 2414.9313,543.2813 Q2415.2594,543.2813 2415.5094,543.5469 Q2415.775,543.7969 2415.775,544.1406 Q2415.775,544.4844 2415.4313,544.8906 Q2414.9313,545.4688 2414.1344,545.7969 Q2413.0563,546.25 2411.7594,546.25 Q2410.2438,546.25 2409.0406,545.625 Q2408.0563,545.125 2407.3688,544.0625 Q2406.6813,542.9844 2406.6813,541.7031 L2406.6813,540.5469 Q2406.6813,539.2188 2407.2906,538.0781 Q2407.9156,536.9219 2409.0094,536.3125 Q2410.1031,535.6875 2411.3375,535.6875 Q2412.0719,535.6875 2412.7125,535.8594 Q2413.3688,536.0156 2413.9156,536.375 Z " fill="#000000"/><text fill="#000000" font-family="sans-serif" font-size="14" lengthAdjust="spacing" textLength="258" x="2425.15" y="546.2969">CD3DX12_CPU_DESCRIPTOR_HANDLE</text><line style="stroke:#181818;stroke-width:0.5;" x1="2397.15" x2="2685.15" y1="556.5" y2="556.5"/><line style="stroke:#181818;stroke-width:0.5;" x1="2397.15" x2="2685.15" y1="564.5" y2="564.5"/></g><!--class CD3DX12_DEPTH_STENCIL_DESC--><g id="elem_CD3DX12_DEPTH_STENCIL_DESC"><rect fill="#F1F1F1" height="48" id="CD3DX12_DEPTH_STENCIL_DESC" rx="2.5" ry="2.5" style="stroke:#181818;stroke-width:0.5;" width="259" x="2721.65" y="524.5"/><ellipse cx="2736.65" cy="540.5" fill="#ADD1B2" rx="11" ry="11" style="stroke:#181818;stroke-width:1.0;"/><path d="M2739.4156,536.375 Q2739.5719,536.1563 2739.7594,536.0469 Q2739.9469,535.9375 2740.1656,535.9375 Q2740.5406,535.9375 2740.775,536.2031 Q2741.0094,536.4531 2741.0094,537.0625 L2741.0094,538.5156 Q2741.0094,539.125 2740.775,539.3906 Q2740.5406,539.6563 2740.1656,539.6563 Q2739.8219,539.6563 2739.6188,539.4531 Q2739.4156,539.2656 2739.3063,538.75 Q2739.2594,538.3906 2739.0719,538.2031 Q2738.7438,537.8281 2738.1344,537.6094 Q2737.525,537.3906 2736.9,537.3906 Q2736.1344,537.3906 2735.4938,537.7188 Q2734.8688,538.0469 2734.3688,538.7969 Q2733.8844,539.5469 2733.8844,540.5781 L2733.8844,541.6719 Q2733.8844,542.9063 2734.775,543.7344 Q2735.6656,544.5469 2737.2594,544.5469 Q2738.1969,544.5469 2738.8531,544.2969 Q2739.2438,544.1406 2739.6656,543.7031 Q2739.9313,543.4375 2740.0719,543.3594 Q2740.2281,543.2813 2740.4313,543.2813 Q2740.7594,543.2813 2741.0094,543.5469 Q2741.275,543.7969 2741.275,544.1406 Q2741.275,544.4844 2740.9313,544.8906 Q2740.4313,545.4688 2739.6344,545.7969 Q2738.5563,546.25 2737.2594,546.25 Q2735.7438,546.25 2734.5406,545.625 Q2733.5563,545.125 2732.8688,544.0625 Q2732.1813,542.9844 2732.1813,541.7031 L2732.1813,540.5469 Q2732.1813,539.2188 2732.7906,538.0781 Q2733.4156,536.9219 2734.5094,536.3125 Q2735.6031,535.6875 2736.8375,535.6875 Q2737.5719,535.6875 2738.2125,535.8594 Q2738.8688,536.0156 2739.4156,536.375 Z " fill="#000000"/><text fill="#000000" font-family="sans-serif" font-size="14" lengthAdjust="spacing" textLength="227" x="2750.65" y="546.2969">CD3DX12_DEPTH_STENCIL_DESC</text><line style="stroke:#181818;stroke-width:0.5;" x1="2722.65" x2="2979.65" y1="556.5" y2="556.5"/><line style="stroke:#181818;stroke-width:0.5;" x1="2722.65" x2="2979.65" y1="564.5" y2="564.5"/></g><!--class CD3DX12_GPU_DESCRIPTOR_HANDLE--><g id="elem_CD3DX12_GPU_DESCRIPTOR_HANDLE"><rect fill="#F1F1F1" height="48" id="CD3DX12_GPU_DESCRIPTOR_HANDLE" rx="2.5" ry="2.5" style="stroke:#181818;stroke-width:0.5;" width="291" x="3015.65" y="524.5"/><ellipse cx="3030.65" cy="540.5" fill="#ADD1B2" rx="11" ry="11" style="stroke:#181818;stroke-width:1.0;"/><path d="M3033.4156,536.375 Q3033.5719,536.1563 3033.7594,536.0469 Q3033.9469,535.9375 3034.1656,535.9375 Q3034.5406,535.9375 3034.775,536.2031 Q3035.0094,536.4531 3035.0094,537.0625 L3035.0094,538.5156 Q3035.0094,539.125 3034.775,539.3906 Q3034.5406,539.6563 3034.1656,539.6563 Q3033.8219,539.6563 3033.6188,539.4531 Q3033.4156,539.2656 3033.3063,538.75 Q3033.2594,538.3906 3033.0719,538.2031 Q3032.7438,537.8281 3032.1344,537.6094 Q3031.525,537.3906 3030.9,537.3906 Q3030.1344,537.3906 3029.4938,537.7188 Q3028.8688,538.0469 3028.3688,538.7969 Q3027.8844,539.5469 3027.8844,540.5781 L3027.8844,541.6719 Q3027.8844,542.9063 3028.775,543.7344 Q3029.6656,544.5469 3031.2594,544.5469 Q3032.1969,544.5469 3032.8531,544.2969 Q3033.2438,544.1406 3033.6656,543.7031 Q3033.9313,543.4375 3034.0719,543.3594 Q3034.2281,543.2813 3034.4313,543.2813 Q3034.7594,543.2813 3035.0094,543.5469 Q3035.275,543.7969 3035.275,544.1406 Q3035.275,544.4844 3034.9313,544.8906 Q3034.4313,545.4688 3033.6344,545.7969 Q3032.5563,546.25 3031.2594,546.25 Q3029.7438,546.25 3028.5406,545.625 Q3027.5563,545.125 3026.8688,544.0625 Q3026.1813,542.9844 3026.1813,541.7031 L3026.1813,540.5469 Q3026.1813,539.2188 3026.7906,538.0781 Q3027.4156,536.9219 3028.5094,536.3125 Q3029.6031,535.6875 3030.8375,535.6875 Q3031.5719,535.6875 3032.2125,535.8594 Q3032.8688,536.0156 3033.4156,536.375 Z " fill="#000000"/><text fill="#000000" font-family="sans-serif" font-size="14" lengthAdjust="spacing" textLength="259" x="3044.65" y="546.2969">CD3DX12_GPU_DESCRIPTOR_HANDLE</text><line style="stroke:#181818;stroke-width:0.5;" x1="3016.65" x2="3305.65" y1="556.5" y2="556.5"/><line style="stroke:#181818;stroke-width:0.5;" x1="3016.65" x2="3305.65" y1="564.5" y2="564.5"/></g><!--class CD3DX12_RASTERIZER_DESC--><g id="elem_CD3DX12_RASTERIZER_DESC"><rect fill="#F1F1F1" height="48" id="CD3DX12_RASTERIZER_DESC" rx="2.5" ry="2.5" style="stroke:#181818;stroke-width:0.5;" width="234" x="3342.15" y="524.5"/><ellipse cx="3357.15" cy="540.5" fill="#ADD1B2" rx="11" ry="11" style="stroke:#181818;stroke-width:1.0;"/><path d="M3359.9156,536.375 Q3360.0719,536.1563 3360.2594,536.0469 Q3360.4469,535.9375 3360.6656,535.9375 Q3361.0406,535.9375 3361.275,536.2031 Q3361.5094,536.4531 3361.5094,537.0625 L3361.5094,538.5156 Q3361.5094,539.125 3361.275,539.3906 Q3361.0406,539.6563 3360.6656,539.6563 Q3360.3219,539.6563 3360.1188,539.4531 Q3359.9156,539.2656 3359.8063,538.75 Q3359.7594,538.3906 3359.5719,538.2031 Q3359.2438,537.8281 3358.6344,537.6094 Q3358.025,537.3906 3357.4,537.3906 Q3356.6344,537.3906 3355.9938,537.7188 Q3355.3688,538.0469 3354.8688,538.7969 Q3354.3844,539.5469 3354.3844,540.5781 L3354.3844,541.6719 Q3354.3844,542.9063 3355.275,543.7344 Q3356.1656,544.5469 3357.7594,544.5469 Q3358.6969,544.5469 3359.3531,544.2969 Q3359.7438,544.1406 3360.1656,543.7031 Q3360.4313,543.4375 3360.5719,543.3594 Q3360.7281,543.2813 3360.9313,543.2813 Q3361.2594,543.2813 3361.5094,543.5469 Q3361.775,543.7969 3361.775,544.1406 Q3361.775,544.4844 3361.4313,544.8906 Q3360.9313,545.4688 3360.1344,545.7969 Q3359.0563,546.25 3357.7594,546.25 Q3356.2438,546.25 3355.0406,545.625 Q3354.0563,545.125 3353.3688,544.0625 Q3352.6813,542.9844 3352.6813,541.7031 L3352.6813,540.5469 Q3352.6813,539.2188 3353.2906,538.0781 Q3353.9156,536.9219 3355.0094,536.3125 Q3356.1031,535.6875 3357.3375,535.6875 Q3358.0719,535.6875 3358.7125,535.8594 Q3359.3688,536.0156 3359.9156,536.375 Z " fill="#000000"/><text fill="#000000" font-family="sans-serif" font-size="14" lengthAdjust="spacing" textLength="202" x="3371.15" y="546.2969">CD3DX12_RASTERIZER_DESC</text><line style="stroke:#181818;stroke-width:0.5;" x1="3343.15" x2="3575.15" y1="556.5" y2="556.5"/><line style="stroke:#181818;stroke-width:0.5;" x1="3343.15" x2="3575.15" y1="564.5" y2="564.5"/></g><!--class CD3DX12_ROOT_SIGNATURE_DESC--><g id="elem_CD3DX12_ROOT_SIGNATURE_DESC"><rect fill="#F1F1F1" height="48" id="CD3DX12_ROOT_SIGNATURE_DESC" rx="2.5" ry="2.5" style="stroke:#181818;stroke-width:0.5;" width="275" x="3611.65" y="524.5"/><ellipse cx="3626.65" cy="540.5" fill="#ADD1B2" rx="11" ry="11" style="stroke:#181818;stroke-width:1.0;"/><path d="M3629.4156,536.375 Q3629.5719,536.1563 3629.7594,536.0469 Q3629.9469,535.9375 3630.1656,535.9375 Q3630.5406,535.9375 3630.775,536.2031 Q3631.0094,536.4531 3631.0094,537.0625 L3631.0094,538.5156 Q3631.0094,539.125 3630.775,539.3906 Q3630.5406,539.6563 3630.1656,539.6563 Q3629.8219,539.6563 3629.6188,539.4531 Q3629.4156,539.2656 3629.3063,538.75 Q3629.2594,538.3906 3629.0719,538.2031 Q3628.7438,537.8281 3628.1344,537.6094 Q3627.525,537.3906 3626.9,537.3906 Q3626.1344,537.3906 3625.4938,537.7188 Q3624.8688,538.0469 3624.3688,538.7969 Q3623.8844,539.5469 3623.8844,540.5781 L3623.8844,541.6719 Q3623.8844,542.9063 3624.775,543.7344 Q3625.6656,544.5469 3627.2594,544.5469 Q3628.1969,544.5469 3628.8531,544.2969 Q3629.2438,544.1406 3629.6656,543.7031 Q3629.9313,543.4375 3630.0719,543.3594 Q3630.2281,543.2813 3630.4313,543.2813 Q3630.7594,543.2813 3631.0094,543.5469 Q3631.275,543.7969 3631.275,544.1406 Q3631.275,544.4844 3630.9313,544.8906 Q3630.4313,545.4688 3629.6344,545.7969 Q3628.5563,546.25 3627.2594,546.25 Q3625.7438,546.25 3624.5406,545.625 Q3623.5563,545.125 3622.8688,544.0625 Q3622.1813,542.9844 3622.1813,541.7031 L3622.1813,540.5469 Q3622.1813,539.2188 3622.7906,538.0781 Q3623.4156,536.9219 3624.5094,536.3125 Q3625.6031,535.6875 3626.8375,535.6875 Q3627.5719,535.6875 3628.2125,535.8594 Q3628.8688,536.0156 3629.4156,536.375 Z " fill="#000000"/><text fill="#000000" font-family="sans-serif" font-size="14" lengthAdjust="spacing" textLength="243" x="3640.65" y="546.2969">CD3DX12_ROOT_SIGNATURE_DESC</text><line style="stroke:#181818;stroke-width:0.5;" x1="3612.65" x2="3885.65" y1="556.5" y2="556.5"/><line style="stroke:#181818;stroke-width:0.5;" x1="3612.65" x2="3885.65" y1="564.5" y2="564.5"/></g><!--class CD3DX12_RESOURCE_DESC--><g id="elem_CD3DX12_RESOURCE_DESC"><rect fill="#F1F1F1" height="48" id="CD3DX12_RESOURCE_DESC" rx="2.5" ry="2.5" style="stroke:#181818;stroke-width:0.5;" width="225" x="976.65" y="874.5"/><ellipse cx="991.65" cy="890.5" fill="#ADD1B2" rx="11" ry="11" style="stroke:#181818;stroke-width:1.0;"/><path d="M994.4156,886.375 Q994.5719,886.1563 994.7594,886.0469 Q994.9469,885.9375 995.1656,885.9375 Q995.5406,885.9375 995.775,886.2031 Q996.0094,886.4531 996.0094,887.0625 L996.0094,888.5156 Q996.0094,889.125 995.775,889.3906 Q995.5406,889.6563 995.1656,889.6563 Q994.8219,889.6563 994.6188,889.4531 Q994.4156,889.2656 994.3063,888.75 Q994.2594,888.3906 994.0719,888.2031 Q993.7438,887.8281 993.1344,887.6094 Q992.525,887.3906 991.9,887.3906 Q991.1344,887.3906 990.4938,887.7188 Q989.8688,888.0469 989.3688,888.7969 Q988.8844,889.5469 988.8844,890.5781 L988.8844,891.6719 Q988.8844,892.9063 989.775,893.7344 Q990.6656,894.5469 992.2594,894.5469 Q993.1969,894.5469 993.8531,894.2969 Q994.2438,894.1406 994.6656,893.7031 Q994.9313,893.4375 995.0719,893.3594 Q995.2281,893.2813 995.4313,893.2813 Q995.7594,893.2813 996.0094,893.5469 Q996.275,893.7969 996.275,894.1406 Q996.275,894.4844 995.9313,894.8906 Q995.4313,895.4688 994.6344,895.7969 Q993.5563,896.25 992.2594,896.25 Q990.7438,896.25 989.5406,895.625 Q988.5563,895.125 987.8688,894.0625 Q987.1813,892.9844 987.1813,891.7031 L987.1813,890.5469 Q987.1813,889.2188 987.7906,888.0781 Q988.4156,886.9219 989.5094,886.3125 Q990.6031,885.6875 991.8375,885.6875 Q992.5719,885.6875 993.2125,885.8594 Q993.8688,886.0156 994.4156,886.375 Z " fill="#000000"/><text fill="#000000" font-family="sans-serif" font-size="14" lengthAdjust="spacing" textLength="193" x="1005.65" y="896.2969">CD3DX12_RESOURCE_DESC</text><line style="stroke:#181818;stroke-width:0.5;" x1="977.65" x2="1200.65" y1="906.5" y2="906.5"/><line style="stroke:#181818;stroke-width:0.5;" x1="977.65" x2="1200.65" y1="914.5" y2="914.5"/></g><!--reverse link CommandQueue to SwapChain--><g id="link_CommandQueue_SwapChain"><path codeLine="448" d="M1418.78,1062.76 C1403.31,1079.38 1388.07,1096.21 1373.57,1112.72 " fill="none" id="CommandQueue-backto-SwapChain" style="stroke:#181818;stroke-width:1.0;"/><polygon fill="#181818" points="1427.91,1053.01,1420.8889,1054.6543,1419.7062,1061.7677,1426.7274,1060.1235,1427.91,1053.01" style="stroke:#181818;stroke-width:1.0;"/></g><!--reverse link CommandQueue to SwapChain--><g id="link_CommandQueue_SwapChain"><path codeLine="493" d="M1450.43,1056.72 C1433.38,1075.28 1416.17,1094.21 1399.51,1112.72 " fill="none" id="CommandQueue-backto-SwapChain-1" style="stroke:#181818;stroke-width:1.0;stroke-dasharray:7.0,7.0;"/><polygon fill="#181818" points="1453.84,1053.01,1444.8057,1056.932,1450.4575,1056.6922,1450.6973,1062.344,1453.84,1053.01" style="stroke:#181818;stroke-width:1.0;"/></g><!--reverse link CommandQueue to SwapChain--><g id="link_CommandQueue_SwapChain"><path codeLine="496" d="M1476.03,1057.19 C1459.44,1075.6 1442.35,1094.36 1425.45,1112.72 " fill="none" id="CommandQueue-backto-SwapChain-2" style="stroke:#181818;stroke-width:1.0;stroke-dasharray:7.0,7.0;"/><polygon fill="#181818" points="1479.78,1053.01,1470.7938,1057.0409,1476.4423,1056.7328,1476.7504,1062.3813,1479.78,1053.01" style="stroke:#181818;stroke-width:1.0;"/></g><!--reverse link SwapChain to CommandQueue--><g id="link_SwapChain_CommandQueue"><path codeLine="517" d="M1454.88,1109.01 C1472.28,1090.45 1489.46,1071.52 1505.72,1053.01 " fill="none" id="SwapChain-backto-CommandQueue" style="stroke:#181818;stroke-width:1.0;stroke-dasharray:7.0,7.0;"/><polygon fill="#181818" points="1451.39,1112.72,1460.4711,1108.9077,1454.8168,1109.079,1454.6455,1103.4247,1451.39,1112.72" style="stroke:#181818;stroke-width:1.0;"/></g><!--reverse link Engine to CommandQueue--><g id="link_Engine_CommandQueue"><path codeLine="451" d="M896.6,231.46 C1008.4,268.84 1150.14,328.12 1256.15,413 C1317.21,461.89 1427.72,621.2 1508.28,743.94 " fill="none" id="Engine-backto-CommandQueue" style="stroke:#181818;stroke-width:1.0;"/><polygon fill="#181818" points="884.16,227.35,888.599,233.0329,895.5521,231.121,891.113,225.4381,884.16,227.35" style="stroke:#181818;stroke-width:1.0;"/></g><!--reverse link Engine to ConstantBuffer--><g id="link_Engine_ConstantBuffer"><path codeLine="454" d="M536.75,362.62 C520.17,379.5 503.57,396.4 487.51,412.75 " fill="none" id="Engine-backto-ConstantBuffer" style="stroke:#181818;stroke-width:1.0;"/><polygon fill="#181818" points="545.96,353.25,538.9024,354.7301,537.5543,361.8141,544.6118,360.334,545.96,353.25" style="stroke:#181818;stroke-width:1.0;"/></g><!--reverse link Engine to Device--><g id="link_Engine_Device"><path codeLine="457" d="M893.74,356.01 C933.88,395.34 974.54,435.19 1008.3,468.27 " fill="none" id="Engine-backto-Device" style="stroke:#181818;stroke-width:1.0;"/><polygon fill="#181818" points="884.37,346.83,885.8556,353.8864,892.9406,355.2291,891.455,348.1727,884.37,346.83" style="stroke:#181818;stroke-width:1.0;"/></g><!--reverse link Engine to RootSignature--><g id="link_Engine_RootSignature"><path codeLine="460" d="M784.94,365.87 C789.04,381.65 792.55,397.5 795.15,413 C821.31,569.09 798.26,757.22 784.17,846.15 " fill="none" id="Engine-backto-RootSignature" style="stroke:#181818;stroke-width:1.0;"/><polygon fill="#181818" points="781.52,353.24,779.2271,360.0769,784.6562,364.8229,786.9491,357.9861,781.52,353.24" style="stroke:#181818;stroke-width:1.0;"/></g><!--reverse link Engine to SwapChain--><g id="link_Engine_SwapChain"><path codeLine="463" d="M532.83,192.24 C382.45,212.26 177.76,266.67 75.15,413 C6,511.62 22.99,575.44 75.15,684 C209.64,963.92 532.75,1110.47 809.4,1186.54 " fill="none" id="Engine-backto-SwapChain" style="stroke:#181818;stroke-width:1.0;"/><polygon fill="#181818" points="545.84,190.58,539.3792,187.3771,533.9378,192.109,540.3986,195.3119,545.84,190.58" style="stroke:#181818;stroke-width:1.0;"/></g><!--reverse link Engine to WindowInfo--><g id="link_Engine_WindowInfo"><path codeLine="466" d="M702.4,366.52 C702.44,410.3 703.44,453.9 705.41,487.34 " fill="none" id="Engine-backto-WindowInfo" style="stroke:#181818;stroke-width:1.0;"/><polygon fill="#181818" points="702.42,353.25,698.4068,359.2412,702.3936,365.25,706.4068,359.2588,702.42,353.25" style="stroke:#181818;stroke-width:1.0;"/></g><!--reverse link WindowInfo to Engine--><g id="link_WindowInfo_Engine"><path codeLine="526" d="M725.78,482.08 C727.86,445.92 728.81,399.12 728.63,353.25 " fill="none" id="WindowInfo-backto-Engine" style="stroke:#181818;stroke-width:1.0;stroke-dasharray:7.0,7.0;"/><polygon fill="#181818" points="725.46,487.34,729.9918,478.5957,725.7595,482.349,722.0062,478.1166,725.46,487.34" style="stroke:#181818;stroke-width:1.0;"/></g><!--reverse link CD3DX12_DEFAULT to CD3DX12_BLEND_DESC--><g id="link_CD3DX12_DEFAULT_CD3DX12_BLEND_DESC"><path codeLine="475" d="M2998.33,209.17 C2985.78,248.61 2957.11,319.21 2905.15,353 C2707.53,481.52 2586.09,301.95 2378.15,413 C2330.36,438.52 2294.16,493.05 2276.37,524.27 " fill="none" id="CD3DX12_DEFAULT-backto-CD3DX12_BLEND_DESC" style="stroke:#181818;stroke-width:1.0;stroke-dasharray:7.0,7.0;"/><polygon fill="#181818" points="2999.93,204.06,2993.4352,211.4639,2998.4435,208.8339,3001.0735,213.8423,2999.93,204.06" style="stroke:#181818;stroke-width:1.0;"/></g><!--reverse link CD3DX12_DEFAULT to CD3DX12_CPU_DESCRIPTOR_HANDLE--><g id="link_CD3DX12_DEFAULT_CD3DX12_CPU_DESCRIPTOR_HANDLE"><path codeLine="478" d="M2997.03,209.19 C2983.22,247.4 2953.4,315.17 2905.15,353 C2831.79,410.52 2786.41,369.13 2704.15,413 C2647.66,443.13 2592.45,494.68 2563.02,524.45 " fill="none" id="CD3DX12_DEFAULT-backto-CD3DX12_CPU_DESCRIPTOR_HANDLE" style="stroke:#181818;stroke-width:1.0;stroke-dasharray:7.0,7.0;"/><polygon fill="#181818" points="2998.79,204.23,2992.0125,211.376,2997.1192,208.9426,2999.5526,214.0493,2998.79,204.23" style="stroke:#181818;stroke-width:1.0;"/></g><!--reverse link CD3DX12_DEFAULT to CD3DX12_DEPTH_STENCIL_DESC--><g id="link_CD3DX12_DEFAULT_CD3DX12_DEPTH_STENCIL_DESC"><path codeLine="481" d="M2994.29,209.04 C2964.76,278.88 2888.32,459.61 2861.02,524.16 " fill="none" id="CD3DX12_DEFAULT-backto-CD3DX12_DEPTH_STENCIL_DESC" style="stroke:#181818;stroke-width:1.0;stroke-dasharray:7.0,7.0;"/><polygon fill="#181818" points="2996.34,204.2,2989.1535,210.9345,2994.3946,208.806,2996.5231,214.0472,2996.34,204.2" style="stroke:#181818;stroke-width:1.0;"/></g><!--reverse link CD3DX12_DEFAULT to CD3DX12_GPU_DESCRIPTOR_HANDLE--><g id="link_CD3DX12_DEFAULT_CD3DX12_GPU_DESCRIPTOR_HANDLE"><path codeLine="484" d="M3018.01,209.04 C3047.55,278.88 3123.98,459.61 3151.28,524.16 " fill="none" id="CD3DX12_DEFAULT-backto-CD3DX12_GPU_DESCRIPTOR_HANDLE" style="stroke:#181818;stroke-width:1.0;stroke-dasharray:7.0,7.0;"/><polygon fill="#181818" points="3015.97,204.2,3015.7869,214.0472,3017.9154,208.806,3023.1565,210.9345,3015.97,204.2" style="stroke:#181818;stroke-width:1.0;"/></g><!--reverse link CD3DX12_DEFAULT to CD3DX12_RASTERIZER_DESC--><g id="link_CD3DX12_DEFAULT_CD3DX12_RASTERIZER_DESC"><path codeLine="487" d="M3045.67,206.95 C3107.28,248.03 3229,331.73 3324.15,413 C3366.67,449.31 3411.88,496.3 3437.7,524.04 " fill="none" id="CD3DX12_DEFAULT-backto-CD3DX12_RASTERIZER_DESC" style="stroke:#181818;stroke-width:1.0;stroke-dasharray:7.0,7.0;"/><polygon fill="#181818" points="3041.34,204.07,3046.6097,212.3905,3045.5003,206.8435,3051.0473,205.7341,3041.34,204.07" style="stroke:#181818;stroke-width:1.0;"/></g><!--reverse link CD3DX12_DEFAULT to CD3DX12_ROOT_SIGNATURE_DESC--><g id="link_CD3DX12_DEFAULT_CD3DX12_ROOT_SIGNATURE_DESC"><path codeLine="490" d="M3094.03,205.43 C3212.87,240.69 3428.96,312.79 3594.15,413 C3646.85,444.97 3699.11,495.15 3727.46,524.33 " fill="none" id="CD3DX12_DEFAULT-backto-CD3DX12_ROOT_SIGNATURE_DESC" style="stroke:#181818;stroke-width:1.0;stroke-dasharray:7.0,7.0;"/><polygon fill="#181818" points="3089.14,203.98,3096.6425,210.3606,3093.9361,205.3931,3098.9036,202.6868,3089.14,203.98" style="stroke:#181818;stroke-width:1.0;"/></g><!--reverse link Device to CD3DX12_RESOURCE_DESC--><g id="link_Device_CD3DX12_RESOURCE_DESC"><path codeLine="499" d="M1078.04,634.06 C1074.86,713.13 1076.31,826.04 1082.37,874.25 " fill="none" id="Device-backto-CD3DX12_RESOURCE_DESC" style="stroke:#181818;stroke-width:1.0;stroke-dasharray:7.0,7.0;"/><polygon fill="#181818" points="1078.25,628.9,1073.8683,637.7205,1078.0359,633.8954,1081.861,638.063,1078.25,628.9" style="stroke:#181818;stroke-width:1.0;"/></g><!--reverse link Device to CD3DX12_RESOURCE_DESC--><g id="link_Device_CD3DX12_RESOURCE_DESC"><path codeLine="502" d="M1100.92,634.06 C1104.28,713.13 1102.75,826.04 1096.33,874.25 " fill="none" id="Device-backto-CD3DX12_RESOURCE_DESC-1" style="stroke:#181818;stroke-width:1.0;stroke-dasharray:7.0,7.0;"/><polygon fill="#181818" points="1100.69,628.9,1097.0802,638.0635,1100.9047,633.8954,1105.0728,637.7199,1100.69,628.9" style="stroke:#181818;stroke-width:1.0;"/></g><!--reverse link Device to CommandQueue--><g id="link_Device_CommandQueue"><path codeLine="505" d="M1210.98,631.51 C1260.94,665.14 1320.47,705.2 1377.96,743.9 " fill="none" id="Device-backto-CommandQueue" style="stroke:#181818;stroke-width:1.0;stroke-dasharray:7.0,7.0;"/><polygon fill="#181818" points="1206.79,628.68,1212.0201,637.0254,1210.937,631.4732,1216.4893,630.3901,1206.79,628.68" style="stroke:#181818;stroke-width:1.0;"/></g><!--reverse link Device to RootSignature--><g id="link_Device_RootSignature"><path codeLine="508" d="M1013.95,632.85 C953.95,699.34 871.84,790.35 821.2,846.46 " fill="none" id="Device-backto-RootSignature" style="stroke:#181818;stroke-width:1.0;stroke-dasharray:7.0,7.0;"/><polygon fill="#181818" points="1017.51,628.9,1008.5076,632.8947,1014.1573,632.6094,1014.4426,638.259,1017.51,628.9" style="stroke:#181818;stroke-width:1.0;"/></g><!--reverse link Device to SwapChain--><g id="link_Device_SwapChain"><path codeLine="511" d="M1142.28,633.27 C1164.47,665.91 1188.08,704.86 1202.15,744 C1244.91,862.94 1256.91,1006.28 1261.61,1112.71 " fill="none" id="Device-backto-SwapChain" style="stroke:#181818;stroke-width:1.0;stroke-dasharray:7.0,7.0;"/><polygon fill="#181818" points="1139.3,628.91,1141.0641,638.5996,1142.1162,633.0414,1147.6744,634.0936,1139.3,628.91" style="stroke:#181818;stroke-width:1.0;"/></g><!--reverse link Device to SwapChain--><g id="link_Device_SwapChain"><path codeLine="514" d="M1175.04,633.27 C1199.47,665.91 1223.08,704.86 1237.15,744 C1279.91,862.94 1291.91,1006.28 1291.05,1112.71 " fill="none" id="Device-backto-SwapChain-1" style="stroke:#181818;stroke-width:1.0;stroke-dasharray:7.0,7.0;"/><polygon fill="#181818" points="1171.75,628.91,1173.9884,638.5011,1174.766,632.898,1180.3691,633.6755,1171.75,628.91" style="stroke:#181818;stroke-width:1.0;"/></g><!--reverse link Transform to Mesh--><g id="link_Transform_Mesh"><path codeLine="520" d="M1568.36,218.52 C1583.32,279.42 1613.11,400.74 1632.04,477.81 " fill="none" id="Transform-backto-Mesh" style="stroke:#181818;stroke-width:1.0;stroke-dasharray:7.0,7.0;"/><polygon fill="#181818" points="1567.14,213.52,1565.4154,223.2167,1568.3392,218.3741,1573.1819,221.2979,1567.14,213.52" style="stroke:#181818;stroke-width:1.0;"/></g><!--reverse link Vertex to Mesh--><g id="link_Vertex_Mesh"><path codeLine="523" d="M1726.76,227.9 C1711.39,291.18 1683.9,404.41 1666.1,477.7 " fill="none" id="Vertex-backto-Mesh" style="stroke:#181818;stroke-width:1.0;stroke-dasharray:7.0,7.0;"/><polygon fill="#181818" points="1728.03,222.69,1722.0097,230.4846,1726.8442,227.5474,1729.7815,232.3819,1728.03,222.69" style="stroke:#181818;stroke-width:1.0;"/></g><!--reverse link WindowInfo to SwapChain--><g id="link_WindowInfo_SwapChain"><path codeLine="529" d="M661.6,614.16 C647.28,636.52 631.9,661.58 617.15,684 C599.12,711.41 584.19,712.77 574.15,744 C532.14,874.75 492.86,942.31 574.15,1053 C607.11,1097.88 700.86,1137.56 809.4,1170.16 " fill="none" id="WindowInfo-backto-SwapChain" style="stroke:#181818;stroke-width:1.0;stroke-dasharray:7.0,7.0;"/><polygon fill="#181818" points="664.45,609.72,656.2268,615.1403,661.7527,613.9301,662.9629,619.4559,664.45,609.72" style="stroke:#181818;stroke-width:1.0;"/></g><!--reverse link WindowInfo to SwapChain--><g id="link_WindowInfo_SwapChain"><path codeLine="532" d="M694.61,614.16 C682.28,636.52 666.9,661.58 652.15,684 C634.12,711.41 619.19,712.77 609.15,744 C567.14,874.75 527.86,942.31 609.15,1053 C638.63,1093.13 716.72,1129.11 809.45,1159.58 " fill="none" id="WindowInfo-backto-SwapChain-1" style="stroke:#181818;stroke-width:1.0;stroke-dasharray:7.0,7.0;"/><polygon fill="#181818" points="697.03,609.72,689.2006,615.6949,694.6297,614.1062,696.2185,619.5354,697.03,609.72" style="stroke:#181818;stroke-width:1.0;"/></g><!--SRC=[xHnhSwD6ylFvLt1V76LFtbIogLGgbQGAIKXBHH84aEszBnGI8viB0WwG7qdbVllrpF2O5qZMsjwjIZvihUdkwUdtz30Zllf2izR_GPkoqBxuwkni4mT5eOtJtIv8mb_tQ8-qFyx-yQ__iP31bsV_kF0tkr2FutIZ_O39xJB_qPoyctpzJKL9S46PvZ_3y1agnxjwSCS0WlsvuandFaIuHSb6effYO3lfF2fAUSvP7cItqQQeM6AYUchyzx7aH03Z3YLun7jzEPaR65pS1zduDeWIW1QtGOv2FmDURWrknru6CT5pdnJHJO92BKfA4DrCedB0IJ11Tn6efONa_w6QhTPCZ1M-IwCGU3ae2L4-GZTHCjYa2IX76FgNfd5bMuxtHhlBXXgBSOmnG7E82OcDaOG31dWLHANxc6nQs9zdRGm1no0fH_lj5kKaYdWG3YCSM2Bimjy5MOR2Qk0FskY3PxmXtbdVDK3EEWugqdtUk7sMxI-ZlDm7iHw6EIgA0MjV-1UY1omnLNTchy0OZhVIvxu-cJY6wvB9zdaEZZKniUIX2n_5Q0VeSRedpkz0kz7l2lUEOnJaZ1qlnZaAIbIReBKlYGDEzW8O3Zb-u3eGWHbaxulRIL060upCqxIqWppO4Js6XEQDjYOp2NmmQuKVQUHX_rtu8LhlRy1ZPPx6iUo62KPNFg33vCoh0fbo8vox20YNwvd9ym30DDX0NNcaF1vkeauqjPz29oE1RAXqkeTmIE-1vehyOIRRL56nc7phgrVTP8JZIER5HZ_bjZv08bYN8LNPLeN671m831US7vJxN6B48Gc_d8Nq4sFkJKqIEVCry8X2INr8orFheNE8s6qgbQT1HzqxLCUWVa3mK_OaRUwZiBmTahIuHT7DRQa8eWKgRca8tQ6yH0y7IrDDgAuPLD4xX8Ftnqj2-FEv1i-zMhgezF8WARPflgkir3oVQognENUHiepznKK2hu0K2mKJ1xsa1zSnXNZkRH3IvUB2pw8CnP2eRWdLKPpCPf54BfJdepXTyuGOGh1PqOEywq7Iucn73oYcmbLslY_AF4fkphKimB52WJKi2NP8X87tYoXDfBh_B5o7akZdsXh-6rQhdFjUdnYEZzVIiJKnpd6-uVnuBD4u3P4a58t0PrQOJMQE6qEooaAONbMrcx90eoClxzwZ89FNZsAJHnba4SPMzMWKR7vpl4jcXUth7sYQUK5-Wye1rp5qfpP8SrHlmbT6TjtgBerTL8ncWxQV6KC_Cp7SiMFQdkNuRLkA3GOhKemEaww1ArMde_-XGO8dFYQzcqXlb5SNzA5o8TVm8Z_isGjezGgiZhIUMLIjzRE9O4Fh2JqWLwx10CIYN7n_zSKPIlOx3UsoyX47jtkbs_xulMuk_T5gEeMy7LkhfSTsro32DNXmD3UM4-93sc5BOD9bAy1imz-2pxMqWxu6JOoflffxc2hDK8vtU8ILn0aq_EE_UvG__adQV9LW2dMiQruFwvfN09uvoQrhKMIWc5lBcJP7stAeaJyTie8V8FBIZ2Ml_XwbPPdkZXyxpQ4xxkHJFq1sTHaG5Egm7365RBBntD0T_rAVhmpET0oSCo4BPqt9m0MJiYDmKlXJordedePxZA2iY_vqRW5iayPf_fJ1T5Y8ChoahCobzpqi7x0rZk8E2x5oCfPI64PLt7WJgIXuOoafEBEfA4G3AhaeCgf_W6ycldRCtEKjtjo1BRLqkorWpTa4CUod7yraapVRqXUSpqpQHRYWNWKFrn192eiC6fms7Y-FVLgSgoPG6-GOLdL0_ZGurZ1FOllFdvvcTSnydQOnAzdfBF2QIMrLel1eBkkWG8UZZL-PFtwM9yP8DVSVi9KkeysVcY24jI_z_lblIUSqr5xAAfzEibCiALVRgef1VLNXRE-zxth6ScpEvMP5HdCrM85cjPJHGlLLZEyflGhgaMNDwGfb9C4QcvgT-SenFSDVwEulbEOgZqgq28hVQhAnjR1rntIjfJzTBSUKQhfFDaEDSAwMkvetjmOwA0WfBmuipL7BQzdQ5dSWBgMR1b5iPGU89aIUOoXjS6fB9Eh5JKpKavZXRSKXqHYQViaOmdx1s5b1hew-GX57waPC6Qwge6yopz6NCqC8UHuf1Bo0vCETHqh1BenLZ_Az3xQXvK5oWxp7h8ew3VOWSYd0vOA-1d3GJGG1c5U8l7fqis1JSr1K5EY8TnuERRSCSjA5awtPvoPNHoNc2h1iUoBfKFjSbP6ZSdQmAPuTR8fd1vlYsH5DyUofJV7ik2PrzbnDyJFFzucQujdpDSMpfpN5ioERujafJV7iuvlYsRCqnRDNQOfddxWfdZsnzPozMbFyGf8zJrFytj1jkTzje5nLRQ6ik0rKg9ujDHRjks-hWs5caErOjk5ufk5gMOxpe8nGfGcG1t5qas0Dk37JkJvpjMqSt1HFcuoiT6Mpo3th17WRO-kmd5OQVT0ssTuERf1DrNgi2HV6md8- -3PkgdTeb-QFDgImdQCjol5bYu-LZRyZuLehPspu-dnkZNNFX6RJN4ujQ0bGGUw-cEHDys67lA84Z9TUPzPdT5stm8fUliqQheKt2n18tsnGKKJGAmtgAj_p4b7qd9J7BKxEPWOdvNIBKsKsC_95aa3RuFEOA4sMQOZQ3QQML8-71LAb_J5Skxp5sEDZVMRhur-CYRymRHAQdCy47ESp4SVwJC09FXD7qiqwTFhGZYTXa8UBA2lgFJo0RTYH8WQ8OLuKesAQvXAkm2qznfA38pEnxi22SLoVAtOOLHIuzrMvl46LTwNoLbIr_wHKhlblsFreQtpvOgXLJoW9EsIbZ0v821jk1nWvydegu0IfUHmlFuUJDE57zknCH5BAVchEv_x2cXZQDehZ1UH0KnPNDMQphp7aLH1vXKAkXw1y3BNqj_keRal8MwDH51JSaGa6ZEDWbzNG8WRxqhPgqevets2DuoYhtpGHw6uVbr4176B4mOEaZ62TXBOed4S9OjzEuRER3GfTCeX8sxvvMRg6SmdBmgNHM8Kk4bHTi3xAxw16t24dmFlQpeZWNQD-4oCxNX4unjZZemK0V8XWW7Z_KGm6JFFK4qELNfXrXp9KBfK6wYLNq4fD96ZQGNJS2fyUnOlhuCI6gzCi7NFsruHwr4Xt7DDmr0Qfa6f3r4Yb0IfafNYVs3KbvzbcywBZD8gI6xgjus-5lD6o-iyHWhogjooTLFgsvBVFeX3ipEGgM8HNv0Dp3qNTNK_teDt1Z1h1UaY8LFLwjL_dNMmh6RaMxaXTLlhb0ILwEVM4ZxoWi1Xru7GtnggbX1ibqfiBO-b2n6jX12b2xtB96vKAKbrC98QcDnFfmzVVqVfkvNgU1uzkats0s4NP7DsX66ys52Vmr6biCMSWl-v1XhQxz8nhR-KO_bp_OAqyBGuUqtqfUVbmWyvRIvqsrMMjqtSVIdbKCOA5KCpCcxoRfwBC7JEBXnw-dWowFCBx6hmOzFgrHxXUpvqg-JV7IYv6QQyQJmd5LrJstQdACjTQFe6_na6ySTjYJE9PWus56qVDFf1M2mPWnq62202pnY1yRQtbKh15c5wTWn8yQUxx4IPjDZVLQ50ZmH0jclIeQXGHX4J14JD-tzScM9P7EbDFNthy3fv7yPMUHt5LY4E9jPuVL-_ktdqpYahoQvycp0yUzpHdPH_5v9Y3BL4ZVDk__jq1iqNzgFax7DE-YvKzq-9arp0uoJSjJkKSPkH9ZdXEcxEIbimEwpdjwdlwI3ZZKrBqsRYYwB4qfUYtTyL5FWPry1bfGLlV70LXuQSP66gWejA-rFhEmzzeVYOEaHAfR-Rdc_M4AAYjY1EmvUSnaV6gTZiGOxRkw0l3CnIfsw3ag6fHKZWrg2gEEBlf1VzJgCi8tSksP5WqltqxEgc47qjScguvCkUczq6xYufe7U7-GpYqKqhrCjDrMADuaX5EBECVPPbYy8fJ2rOIikYfjdg1If79F4-mhQZNPoomu97wdWlj9p-NB5P8zIhnkKhI72P08JtZ-5pCeHBh9URhM5bSSxRKoVv7VZaZu-KrHi1B2msFLtKj0eSwlOZf4QZQiUgsU26jU3_YrPPbLRDtIMpGD-jTK_0qmZJufPmvzbrzOS-hr-9uBf6lqXGT1y4gSoWEGxW6wwzYfgDRF37Wy5sILf-_chdah5VCm6Mz0izblGf_G0CXwrKSb1MlETt3ZUysYXbW_TAc-em4FVGAw3SeLiSGNHv3T5KVzk4NIjQ47l4HKNV1Wvv4HLhcQVROTHrwa-wo80UgXB-bJTGVMSw4_Dnm3XloDLa3nlWdNUsK2KpPF0KFvAchu5FJNJPblsjptPqyIh_Hzu7vfCsXlttqiZuIVbVxjyrVqUQAOhaQjQ-EeThQ3ddfoXOp5GLVC9KKNCbKKOX5KycbyvIfwrKv-w8SEjnxEoetjq-JLZX_WtXWoWFBKd4QfTQqz-oP7UA1KvUpJljJTAVnAtINvIcwn-pL-DQ-PaAk4ZN73jJG8fHOd0EUUD588MolvUeC7bls1xy-nUECfwJWxAUcO4sef12igEQYEbu-RLIT__PS7nkJZgmbGfzhKzZMPNcKbATEHJpexjUg6oJW5fY_cNniGJ4peJtZNmftKl6cxwJYpDz59RgWanlHvw7IgowGlyjN33gYibk0_k24OJ1gXW-MyRKroK0iKh8BXnJDmI8LLk36SdS2gmjP-mADqWUva3OPpgTsZrquIGwR0vOlMs480fPDGC6IyWIiKflISzKBFRI7mKtnOe5rxIAmFaNfh9oAxKSEc-ya4TtejNzOSwyNP0t_bZ47_HOE8SlIegLv1m3omGFriFQx8sJexNqIuiy4NYqdy4G_EuR2zeScL5Luff-38jQedZ3FC_oT46YGRr4UbG7-y66EOdBRjhYDClhrHagZtzn09q5G2fgttCSTtrnSQ6-RpxB0-BVLjz48WYMLSUnhRn5BZsT5AFU1A17PAGNpORR63XEKuO_q99j7fOh2Zv9_VFjMUoj_WkJi4Adw-pY7Hia_43quP7RIHCBznyFqyfk8Cp4Wo03E5GVGrVS1-OcucmWd4GcHn-AaA6AHdR9nYFPJKihPsj90qFXBRnXSrG4EnYGvWTF0LM4u0VgGLOWl4Um5GYrblivwzdy0]--></g></svg>